<svg width="256" height="102" viewBox="0 0 256 102" fill="none" xmlns="http://www.w3.org/2000/svg">
<path fill-rule="evenodd" clip-rule="evenodd" d="M50.62 101.24C78.5759 101.24 101.24 78.5759 101.24 50.62C101.24 22.664 78.5759 0 50.62 0C22.664 0 0 22.664 0 50.62C0 78.5759 22.664 101.24 50.62 101.24ZM50.8264 96.4893C76.1591 96.4893 96.6934 75.9526 96.6934 50.6224C96.6934 25.2921 76.1591 4.75301 50.8264 4.75301C25.494 4.75301 4.9597 25.2873 4.9597 50.62C4.9597 75.9526 25.494 96.4893 50.8264 96.4893ZM50.62 92.9755C74.0127 92.9755 92.9755 74.0127 92.9755 50.62C92.9755 27.2272 74.0127 8.2645 50.62 8.2645C27.2272 8.2645 8.2645 27.2272 8.2645 50.62C8.2645 74.0127 27.2272 92.9755 50.62 92.9755ZM50.7244 87.8117C71.3204 87.8117 88.0181 71.114 88.0181 50.518C88.0181 29.9219 71.3204 13.2242 50.7244 13.2242C30.1284 13.2242 13.4306 29.9196 13.4306 50.518C13.4306 71.1163 30.126 87.8117 50.7244 87.8117ZM50.4112 57.498C48.3384 57.498 46.3252 57.6712 44.3758 58.0013L47.3769 52.79C48.3906 52.7236 49.4043 52.6904 50.4112 52.6904C52.7687 52.6904 55.1666 52.885 57.4837 53.2578L45.8311 33.0177L26.4318 66.7098L23.6588 61.8951L45.786 23.4639L45.8311 23.5425L45.8741 23.4663L72.5788 69.8461H67.0351L60.7933 59.0055C57.5407 58.0226 54.065 57.498 50.4112 57.498ZM74.3049 66.7904L48.4499 21.8876H53.9936L77.0755 61.9757L74.3049 66.7904ZM48.6447 44.0412L38.0296 62.479C41.8284 61.3298 46.2991 60.817 50.518 60.817C50.8599 60.817 51.2016 60.8217 51.5435 60.8289C53.939 60.8858 56.3609 61.14 58.6804 61.5745L62.2225 67.7261C58.5971 66.4037 54.6727 65.6249 50.518 65.6249C44.3734 65.6249 38.7301 67.149 33.8155 69.7986L33.8938 69.6586L33.787 69.8437H28.2433L45.8741 39.2239L48.6447 44.0412Z" fill="white"/>
<path fill-rule="evenodd" clip-rule="evenodd" d="M126.802 55.6485H136.083L131.419 42.1251L126.802 55.6485ZM139.732 66.8569L137.666 60.8616H125.173L123.106 66.8569H116.004L127.543 34.274H135.343L146.834 66.8569H139.732Z" fill="white"/>
<path fill-rule="evenodd" clip-rule="evenodd" d="M154.621 63.3535C152.285 60.966 151.117 57.7972 151.119 53.8473C151.121 49.8973 152.288 46.7294 154.621 44.3434C156.955 41.9524 159.98 40.7575 163.698 40.7594C166.801 40.7594 169.397 41.51 171.488 43.0114C173.579 44.5129 174.974 46.6397 175.673 49.3924H168.676C167.848 47.2812 166.191 46.2253 163.706 46.2253C161.833 46.2253 160.367 46.9065 159.306 48.2691C158.246 49.6313 157.716 51.4908 157.716 53.8473C157.716 56.2072 158.246 58.0674 159.306 59.4281C160.367 60.7888 161.831 61.4656 163.698 61.4585C166.157 61.4585 167.814 60.3873 168.668 58.2446H175.673C175.024 60.7814 173.522 63.0198 171.418 64.5866C169.315 66.1506 166.741 66.9325 163.698 66.9325C159.982 66.9325 156.956 65.7395 154.621 63.3535Z" fill="white"/>
<path fill-rule="evenodd" clip-rule="evenodd" d="M199.407 59.4774C200.776 58.1307 201.46 56.2799 201.46 53.9253C201.46 51.5707 200.776 49.7191 199.407 48.3706C198.784 47.7333 198.04 47.2261 197.218 46.8791C196.396 46.5322 195.512 46.3524 194.62 46.3502C193.727 46.3481 192.843 46.5235 192.019 46.8665C191.195 47.2095 190.448 47.7128 189.823 48.3471C188.471 49.6817 187.795 51.5256 187.795 53.8784C187.795 56.2314 188.479 58.0909 189.846 59.4566C190.462 60.1007 191.204 60.6137 192.024 60.9649C192.845 61.3161 193.729 61.4983 194.622 61.5001C195.515 61.502 196.399 61.324 197.222 60.9763C198.044 60.6288 198.787 60.1189 199.407 59.4774ZM184.444 63.4814C182.123 60.9823 180.964 57.7912 180.965 53.9071C180.967 50.0234 182.119 46.8483 184.421 44.3824C186.724 41.9131 189.651 40.6784 193.202 40.6784C196.753 40.6784 199.462 42.1382 201.329 45.0576V41.0512H207.869V66.8569H201.329V62.5246C199.366 65.6631 196.64 67.2315 193.152 67.2297C189.665 67.2278 186.762 65.9784 184.444 63.4814Z" fill="white"/>
<path fill-rule="evenodd" clip-rule="evenodd" d="M215.978 67.1176H222.518V34.5347H215.978V67.1176Z" fill="white"/>
<path fill-rule="evenodd" clip-rule="evenodd" d="M247.447 59.3733C248.816 58.0266 249.499 56.1758 249.496 53.8212C249.496 51.4666 248.813 49.615 247.447 48.2664C246.825 47.6284 246.079 47.1206 245.256 46.7734C244.437 46.4259 243.553 46.2458 242.66 46.2437C241.766 46.2416 240.883 46.4172 240.057 46.7605C239.235 47.104 238.489 47.6078 237.861 48.243C236.511 49.5741 235.834 51.4178 235.831 53.7742C235.831 56.1307 236.514 57.9899 237.882 59.3525C238.499 59.9968 239.24 60.5104 240.06 60.8621C240.88 61.2138 241.766 61.3962 242.66 61.3984C243.551 61.4005 244.437 61.2225 245.259 60.8748C246.082 60.5273 246.825 60.0174 247.445 59.3759L247.447 59.3733ZM232.575 63.218C230.256 60.7208 229.096 57.5278 229.094 53.6387C229.092 49.7494 230.245 46.5738 232.551 44.1114C234.856 41.6421 237.782 40.4074 241.333 40.4074C244.885 40.4074 247.592 41.8669 249.462 44.7866V40.7905H256V66.5961H249.462V62.2665C247.497 65.3947 244.774 66.9586 241.286 66.9586C237.798 66.9586 234.895 65.7127 232.575 63.2207V63.218Z" fill="white"/>
</svg>
