<svg xmlns="http://www.w3.org/2000/svg" viewBox="0 0 1280 232">
	<path fill="#fff" d="M143.017 36.921v57.041M143.017 93.962H24.589v-57.04h118.428v57.04zm24.446 83.66V43.018c0-16.568-13.432-30-30-30H30c-16.569 0-30 13.432-30 30v134.604h24.589v-57.584h118.428v57.584h24.446M293.631 43.483l-74.965.19c-16.538.042-29.923 13.46-29.924 29.999V177.622h24.354v-48.626l-.437-51.024c-.047-5.556 4.444-10.086 10-10.086h70.972V43.483zM338.43 177.622h50.159v-25.156h-55.453v-84.58h55.453V45.07h-55.453V0H308.43v147.622c0 16.569 13.431 30 30 30zM838.967 44.683l-38.523 86.125-34.708-85.738-27.963-.077 53.53 132.629h20.403l42.736-99.55 45.337 99.55h20.132l49.432-132.591-26.782-.038-33.294 87.433-40.225-87.356h-30.624zM293.631 67.886V43.483M1250.708 152.806h-79.157a5 5 0 01-5-5V73.491a5 5 0 015-5h79.157a5 5 0 015 5v74.315a5 5 0 01-5 5zm-.734-107.768l-37.375.032h-68.92V232h22.872v-52.797H1250c16.569 0 30-13.432 30-30V75.038c0-16.579-13.447-30.014-30.026-30zM1095.38 123.847v28.96h-83.6v-29.274l83.6.314zm28.198 53.775V75.07c0-16.569-13.431-30-30-30H986.742V68.49h108.637v30.126H986.742v49.005c0 16.569 13.431 30 30 30h106.836zM541.494 177.622h-24.707V71.146h-87.479v106.476h-23.36V0h23.36v45.07h82.186c16.568 0 30 13.431 30 30v102.552zM593.788 9.759H694.87c16.569 0 30 13.431 30 30v11.273h-24.157v-9.11a5 5 0 00-5-5H588.047a5 5 0 00-5 5v34.545a5 5 0 005 5h108.196c16.568 0 30 13.432 30 30v36.155c0 16.569-13.432 30-30 30H588.788c-16.568 0-30-13.431-30-30v-8.968H584.6v9.152a5 5 0 005 5h106.113a5 5 0 005-5V113.63a5 5 0 00-5-5H593.788c-19.33 0-35-15.67-35-35V44.759c0-19.33 15.67-35 35-35z"/>
</svg>
