<svg xmlns="http://www.w3.org/2000/svg" xmlns:xlink="http://www.w3.org/1999/xlink" width="365.677" height="116.862" viewBox="0 0 365.677 116.862"><defs><linearGradient id="a" x1="0.159" y1="0.841" x2="0.796" y2="0.204" gradientUnits="objectBoundingBox"><stop offset="0.001" stop-color="#e6007a"/><stop offset="0.207" stop-color="#703ac2"/><stop offset="0.456" stop-color="#0070eb"/><stop offset="0.768" stop-color="#0297fb"/><stop offset="1" stop-color="#0ae2ff"/></linearGradient><radialGradient id="b" cx="0.578" cy="0.471" r="0.373" gradientTransform="translate(-0.986) scale(2.972 1)" gradientUnits="objectBoundingBox"><stop offset="0" stop-color="#fff"/><stop offset="1" stop-color="#fff" stop-opacity="0"/></radialGradient><radialGradient id="c" cx="0.561" cy="0.429" r="1.314" gradientTransform="translate(0.36) scale(0.279 1)" xlink:href="#b"/><linearGradient id="d" x1="0.038" y1="0.559" x2="0.429" y2="0.522" gradientUnits="objectBoundingBox"><stop offset="0" stop-color="#fff" stop-opacity="0"/><stop offset="1" stop-color="#fff"/></linearGradient><radialGradient id="e" cx="0.432" cy="0.373" r="0.718" gradientTransform="matrix(-0.287, -0.866, 0.496, -0.5, -20.172, -118.283)" xlink:href="#b"/><radialGradient id="f" cx="0.451" cy="0.42" r="0.423" gradientTransform="matrix(-0.742, -0.866, 1.285, -0.5, -107.53, -174.476)" xlink:href="#b"/><linearGradient id="g" x1="-117.934" y1="-65.137" x2="-117.252" y2="-65.144" xlink:href="#d"/><radialGradient id="h" cx="0.447" cy="0.585" r="0.561" gradientTransform="matrix(-0.387, 0.866, -0.67, -0.5, -31.445, -111.347)" xlink:href="#b"/><radialGradient id="i" cx="0.383" cy="0.542" r="0.425" gradientTransform="matrix(-0.855, 0.866, -1.481, -0.5, -75.974, -153.773)" xlink:href="#b"/><linearGradient id="j" x1="33.01" y1="-92.059" x2="33.88" y2="-92.065" xlink:href="#d"/><linearGradient id="k" x1="0.682" y1="0.31" x2="0.366" y2="0.513" gradientUnits="objectBoundingBox"><stop offset="0" stop-color="#231f20"/><stop offset="1" stop-color="#fff"/></linearGradient><linearGradient id="l" x1="0.291" y1="0.19" x2="0.553" y2="0.566" xlink:href="#k"/><linearGradient id="m" x1="0.323" y1="0.526" x2="0.635" y2="0.159" xlink:href="#k"/><linearGradient id="n" x1="0.277" y1="0.485" x2="0.876" y2="0.939" xlink:href="#k"/><linearGradient id="o" x1="20.996" y1="-70.404" x2="22.145" y2="-70.255" xlink:href="#k"/><linearGradient id="p" x1="-78.539" y1="-51.814" x2="-77.562" y2="-51.646" xlink:href="#k"/><linearGradient id="q" x1="0.915" y1="0.347" x2="0.1" y2="0.846" xlink:href="#k"/><linearGradient id="r" x1="-159.251" y1="-125.608" x2="-159.879" y2="-125.046" xlink:href="#k"/><linearGradient id="s" x1="28.585" y1="-289.104" x2="28.113" y2="-288.254" xlink:href="#k"/><linearGradient id="t" x1="0.203" y1="0.828" x2="0.421" y2="0.565" xlink:href="#k"/><linearGradient id="u" x1="0.74" y1="0.209" x2="0.522" y2="0.371" xlink:href="#k"/><linearGradient id="v" x1="0.283" y1="0.091" x2="0.42" y2="0.338" xlink:href="#k"/><linearGradient id="w" x1="0.539" y1="0.736" x2="0.489" y2="0.505" xlink:href="#k"/><linearGradient id="x" x1="-0.071" y1="0.472" x2="0.192" y2="0.5" xlink:href="#k"/><linearGradient id="y" x1="0.958" y1="0.671" x2="0.634" y2="0.574" xlink:href="#k"/><linearGradient id="z" x1="-20.722" y1="2.254" x2="9.474" y2="-0.241" xlink:href="#a"/><linearGradient id="aa" x1="-3.955" y1="0.867" x2="26.307" y2="-1.628" xlink:href="#a"/><linearGradient id="ab" x1="-0.862" y1="0.736" x2="6.124" y2="-0.321" xlink:href="#a"/><linearGradient id="ac" x1="-0.383" y1="0.617" x2="7.608" y2="-0.407" xlink:href="#a"/><linearGradient id="ad" x1="-1.709" y1="0.849" x2="4.522" y2="-0.134" xlink:href="#a"/><linearGradient id="ae" x1="-2.436" y1="3.986" x2="2.855" y2="-2.296" xlink:href="#a"/><linearGradient id="af" x1="-11.261" y1="1.205" x2="10.974" y2="-0.128" xlink:href="#a"/><linearGradient id="ag" x1="-4.817" y1="1.187" x2="3.165" y2="0.162" xlink:href="#a"/><linearGradient id="ah" x1="-4.749" y1="1.324" x2="2.244" y2="0.266" xlink:href="#a"/><linearGradient id="ai" x1="-7.464" y1="1.481" x2="0.851" y2="0.457" xlink:href="#a"/><linearGradient id="aj" x1="-19.825" y1="1.387" x2="3.65" y2="0.363" xlink:href="#a"/></defs><g transform="translate(-114.161 -43.569)"><path d="M230.886,98.035A58.425,58.425,0,0,0,128.68,63.462h0l-.027-.02c-.066.092-.128.182-.194.274A58.243,58.243,0,0,0,114.3,105.965c.1,1.528.284,3.032.5,4.522v0c.01.067.02.134.029.2q.22,1.476.512,2.924v0l.011.052q.266,1.313.589,2.6v0A58.424,58.424,0,0,0,230.886,98.035Zm-12.719.865a45.567,45.567,0,0,1-.685,11.578c-.009-.021-.016-.044-.025-.065h0c-4.236-10.354-12.615-17.83-19.984-21.959,1.492-17.545-4.46-24.937-11.2-26.139-.183-.035-.367-.066-.555-.089a9.76,9.76,0,1,0-1.1,19.43c.029.593.048,1.222.053,1.88a52.293,52.293,0,0,0-17.36-1.369,50.973,50.973,0,0,0-5.948.752c.663-5.925,2.886-12.576,7.2-17.443a20,20,0,0,1,17.13-6.71,18.411,18.411,0,0,1,3.881.859c.056.019.116.035.172.054l0,0A45.73,45.73,0,0,1,218.167,98.9Zm-40.725,8.925-.013.019a41.6,41.6,0,0,1-5,5.911,43.6,43.6,0,0,1-7.04-9.907c-.091-.185-.189-.361-.278-.55l-.01-.02a41.53,41.53,0,0,1-2.62-7.288,43.625,43.625,0,0,1,12.112-1.147c.206.014.407.018.615.035l.023,0a41.544,41.544,0,0,1,7.609,1.371,43.617,43.617,0,0,1-5.062,11.059C177.665,107.481,177.56,107.653,177.442,107.825ZM157.476,58.9l-.034.042h0c-6.846,8.841-9.131,19.829-9.026,28.273-15.939,7.481-19.364,16.331-17.037,22.766.061.176.127.351.2.525a9.76,9.76,0,1,0,17.375-8.765q.756-.489,1.619-1a52.423,52.423,0,0,0,7.476,15.744,50.57,50.57,0,0,0,3.617,4.765c-5.463,2.39-12.336,3.791-18.709,2.49a20.01,20.01,0,0,1-14.376-11.48,18.488,18.488,0,0,1-1.2-3.791c-.159-1.112-.291-2.233-.369-3.372A45.753,45.753,0,0,1,157.476,58.9Zm18.216,88.674a45.521,45.521,0,0,1-32.828-10.93c11.08,1.508,21.738-2.006,29-6.32,14.454,10.071,23.835,8.613,28.246,3.379q.183-.211.354-.436A9.76,9.76,0,1,0,184.183,122.6c-.53-.271-1.086-.571-1.662-.9a52.287,52.287,0,0,0,9.874-14.36,50.685,50.685,0,0,0,2.323-5.527c4.8,3.536,9.458,8.79,11.518,14.964a20.007,20.007,0,0,1-2.753,18.19A18.441,18.441,0,0,1,200.8,137.9l-.042.039A45.419,45.419,0,0,1,175.692,147.575Z" fill="url(#a)"/><path d="M186.276,62.315c-.183-.035-.367-.066-.555-.089a9.76,9.76,0,0,0-2.772.046c5.589,3.041,9.665,11.514,7.522,28.226a49.818,49.818,0,0,1-4.732,15.637,52.021,52.021,0,0,1-8.069,12.384,46.041,46.041,0,0,0,4.851,3.187,52.287,52.287,0,0,0,9.874-14.36,49.788,49.788,0,0,0,4.733-15.636C199.679,71.81,193.416,63.589,186.276,62.315Z" opacity="0.9" fill="url(#b)" style="mix-blend-mode:overlay;isolation:isolate"/><path d="M190.471,90.5c2.143-16.712-1.933-25.185-7.522-28.226-.219.035-.433.081-.647.13,5.473,3.146,9.41,11.611,7.3,28.1a49.793,49.793,0,0,1-4.733,15.637,51.985,51.985,0,0,1-7.728,11.982c.178.137.355.269.532.4a52.021,52.021,0,0,0,8.069-12.384A49.818,49.818,0,0,0,190.471,90.5Z" fill="#fff" opacity="0.8" style="mix-blend-mode:overlay;isolation:isolate"/><path d="M169.225,128.4c-.525-.4-1.031-.819-1.536-1.238-8.249,3.442-19.684,5.6-31.039,2.965a45.982,45.982,0,0,0,6.214,6.514c11.08,1.508,21.738-2.006,29-6.32C171,129.724,170.123,129.089,169.225,128.4Z" opacity="0.5" fill="url(#c)" style="mix-blend-mode:overlay;isolation:isolate"/><path d="M167.689,127.166c-.253-.209-.507-.416-.755-.63-8.311,3.321-19.8,5.307-31.127,2.483q.414.563.843,1.112C148.005,132.766,159.44,130.608,167.689,127.166Z" opacity="0.6" fill="url(#d)" style="mix-blend-mode:overlay;isolation:isolate"/><path d="M131.382,109.992c.061.176.127.351.2.525a9.721,9.721,0,0,0,1.426,2.378c-.162-6.361,5.138-14.127,20.683-20.628a49.812,49.812,0,0,1,15.908-3.72,52.026,52.026,0,0,1,14.759.8,45.651,45.651,0,0,0,.334-5.8,52.289,52.289,0,0,0-17.372-1.371,49.773,49.773,0,0,0-15.908,3.72C132.9,93.637,128.916,103.171,131.382,109.992Z" opacity="0.9" fill="url(#e)" style="mix-blend-mode:overlay;isolation:isolate"/><path d="M153.692,92.267c-15.545,6.5-20.845,14.267-20.683,20.628.139.172.286.334.436.494-.012-6.312,5.35-13.954,20.683-20.366a49.785,49.785,0,0,1,15.908-3.72,51.963,51.963,0,0,1,14.241.7c.03-.223.056-.442.082-.662a52.026,52.026,0,0,0-14.759-.8A49.812,49.812,0,0,0,153.692,92.267Z" fill="#fff" opacity="0.8" style="mix-blend-mode:overlay;isolation:isolate"/><path d="M197.143,91.714c-.084.655-.194,1.3-.3,1.949,7.1,5.423,14.691,14.247,18.086,25.4a45.882,45.882,0,0,0,2.535-8.638c-4.234-10.349-12.607-17.822-19.973-21.953C197.4,89.516,197.286,90.594,197.143,91.714Z" opacity="0.4" fill="url(#f)" style="mix-blend-mode:overlay;isolation:isolate"/><path d="M196.839,93.663c-.055.324-.108.648-.169.969,7.032,5.537,14.495,14.493,17.714,25.716q.28-.641.541-1.287C211.53,107.91,203.944,99.086,196.839,93.663Z" opacity="0.5" fill="url(#g)" style="mix-blend-mode:overlay;isolation:isolate"/><path d="M200.114,133.691c.122-.141.241-.286.354-.436a9.718,9.718,0,0,0,1.347-2.425c-5.428,3.321-14.8,2.614-28.206-7.6a49.772,49.772,0,0,1-11.175-11.917,52.032,52.032,0,0,1-6.691-13.179,45.586,45.586,0,0,0-5.185,2.608,52.287,52.287,0,0,0,7.5,15.731,49.768,49.768,0,0,0,11.175,11.916C185.19,140.55,195.441,139.237,200.114,133.691Z" opacity="0.9" fill="url(#h)" style="mix-blend-mode:overlay;isolation:isolate"/><path d="M173.609,123.232c13.4,10.212,22.778,10.919,28.206,7.6.079-.206.146-.415.21-.624-5.46,3.166-14.759,2.344-27.98-7.729A49.811,49.811,0,0,1,162.87,110.56a51.973,51.973,0,0,1-6.512-12.684c-.209.085-.411.173-.615.26a52.032,52.032,0,0,0,6.691,13.179A49.772,49.772,0,0,0,173.609,123.232Z" fill="#fff" opacity="0.8" style="mix-blend-mode:overlay;isolation:isolate"/><path d="M151.4,85.879c.609-.254,1.224-.483,1.84-.711,1.144-8.865,4.993-19.847,12.952-28.362a45.994,45.994,0,0,0-8.749,2.123c-6.845,8.842-9.131,19.829-9.025,28.274C149.374,86.757,150.363,86.315,151.4,85.879Z" opacity="0.3" fill="url(#i)" style="mix-blend-mode:overlay;isolation:isolate"/><path d="M153.245,85.168c.308-.114.614-.231.923-.338,1.28-8.859,5.3-19.8,13.413-28.2q-.693.076-1.384.175C158.238,65.321,154.389,76.3,153.245,85.168Z" opacity="0.4" fill="url(#j)" style="mix-blend-mode:overlay;isolation:isolate"/><path d="M168.627,43.706A58.239,58.239,0,0,0,128.68,63.462l-.222.254h0c1.913,1.9,8.166,5.639,10.7,7.2A45.7,45.7,0,0,1,157.476,58.9c.495-.637,1.008-1.267,1.551-1.88,6.6-7.448,15.614-11.384,26.068-11.384,1.164,0,3.533.185,3.584.189A58.178,58.178,0,0,0,168.627,43.706Z" opacity="0.4" fill="url(#k)" style="mix-blend-mode:multiply;isolation:isolate"/><path d="M175.692,147.575a45.521,45.521,0,0,1-32.828-10.93h0c-.817-.111-1.637-.244-2.457-.412-9.75-1.992-17.666-7.829-22.893-16.883a34.429,34.429,0,0,1-1.572-3.077,58.434,58.434,0,0,0,60.615,44.021C176.685,157.343,175.815,150.5,175.692,147.575Z" opacity="0.4" fill="url(#l)" style="mix-blend-mode:multiply;isolation:isolate"/><path d="M230.886,98.035a105.176,105.176,0,0,0-12.719.865,45.567,45.567,0,0,1-.685,11.578c.3.743.589,1.5.847,2.269,3.15,9.44,2.052,19.214-3.175,28.267q-.857,1.483-1.842,2.848l-.037.052.042-.037A58.266,58.266,0,0,0,230.886,98.035Z" opacity="0.4" fill="url(#m)" style="mix-blend-mode:multiply;isolation:isolate"/><path d="M185.7,58.766a18.411,18.411,0,0,1,3.881.859c.056.019.116.035.172.054l0,0A45.909,45.909,0,0,1,203.382,68.3l.026.02a33.5,33.5,0,0,1,5.609-4.6,30.6,30.6,0,0,0-14.3-7.576c-6.052-1.257-19.7-2.474-28.314,12.177l.085-.079a24.629,24.629,0,0,1,2.08-2.762A20,20,0,0,1,185.7,58.766Z" opacity="0.5" fill="url(#n)" style="mix-blend-mode:multiply;isolation:isolate"/><path d="M203.481,134.968A18.436,18.436,0,0,1,200.8,137.9c-.044.04-.088.084-.133.122l0,.005a45.943,45.943,0,0,1-14.28,7.49l-.03.013a33.522,33.522,0,0,1,1.179,7.157,30.6,30.6,0,0,0,13.712-8.594c4.114-4.614,11.994-15.827,3.611-30.61,0,0,.01.046.026.113a24.534,24.534,0,0,1,1.352,3.183A20.007,20.007,0,0,1,203.481,134.968Z" opacity="0.5" fill="url(#o)" style="mix-blend-mode:multiply;isolation:isolate"/><path d="M128.6,112.28a18.489,18.489,0,0,1-1.2-3.791c-.012-.058-.028-.118-.039-.177h0a45.932,45.932,0,0,1,.652-16.112l.005-.032a33.53,33.53,0,0,1-6.789-2.558,30.607,30.607,0,0,0,.587,16.172c1.939,5.87,7.71,18.3,24.7,18.432l-.111-.034a24.576,24.576,0,0,1-3.432-.42A20.01,20.01,0,0,1,128.6,112.28Z" opacity="0.5" fill="url(#p)" style="mix-blend-mode:multiply;isolation:isolate"/><path d="M183.24,81.588a9.806,9.806,0,0,0,1.385.068,68.8,68.8,0,0,0-1.051-9.186c-.745-3.115-1.845-5.177-3.053-6.345-.865-.836-3.6-1.878-5.721,4.541A9.761,9.761,0,0,0,183.24,81.588Z" opacity="0.6" fill="url(#q)" style="mix-blend-mode:multiply;isolation:isolate"/><path d="M149.591,102.985a9.809,9.809,0,0,0-.633-1.234,68.9,68.9,0,0,0-7.43,5.5c-2.325,2.2-3.562,4.187-3.969,5.817-.292,1.167.172,4.054,6.793,2.684A9.761,9.761,0,0,0,149.591,102.985Z" opacity="0.5" fill="url(#r)" style="mix-blend-mode:multiply;isolation:isolate"/><path d="M184.943,121.423a9.7,9.7,0,0,0-.752,1.165,68.941,68.941,0,0,0,8.481,3.683c3.07.912,5.406.991,7.021.528,1.157-.331,3.425-2.175-1.072-7.224A9.759,9.759,0,0,0,184.943,121.423Z" opacity="0.6" fill="url(#s)" style="mix-blend-mode:multiply;isolation:isolate"/><path d="M182.841,96.251a43.617,43.617,0,0,1-5.062,11.059c-.114.171-.219.343-.337.515l-.013.019a41.6,41.6,0,0,1-5,5.911,46.843,46.843,0,0,0,4.373,4.108,45.376,45.376,0,0,0,5.718,3.843,52.287,52.287,0,0,0,9.874-14.36,50.685,50.685,0,0,0,2.323-5.527,30.857,30.857,0,0,0-6.057-3.535A45.787,45.787,0,0,0,182.841,96.251Z" opacity="0.3" fill="url(#t)" style="mix-blend-mode:multiply;isolation:isolate"/><path d="M142.864,136.645c11.08,1.508,21.738-2.006,29-6.32-.862-.6-1.739-1.236-2.637-1.921a49.206,49.206,0,0,1-7.558-7.151c-5.463,2.39-12.336,3.791-18.709,2.49a20.01,20.01,0,0,1-14.376-11.48,18.488,18.488,0,0,1-1.2-3.791A45.545,45.545,0,0,0,142.864,136.645Z" opacity="0.3" fill="url(#u)" style="mix-blend-mode:multiply;isolation:isolate"/><path d="M172.43,113.755a43.6,43.6,0,0,1-7.04-9.907c-.091-.185-.189-.361-.278-.55l-.01-.02a41.53,41.53,0,0,1-2.62-7.288,46.71,46.71,0,0,0-5.732,1.73,45.369,45.369,0,0,0-6.176,3.024,52.423,52.423,0,0,0,7.476,15.744,50.57,50.57,0,0,0,3.617,4.765,30.873,30.873,0,0,0,6.1-3.481A46.046,46.046,0,0,0,172.43,113.755Z" opacity="0.3" fill="url(#v)" style="mix-blend-mode:multiply;isolation:isolate"/><path d="M157.442,58.943c-6.846,8.841-9.131,19.829-9.026,28.273.955-.448,1.948-.892,2.994-1.329a49.228,49.228,0,0,1,9.96-2.968c.663-5.925,2.886-12.576,7.2-17.443a20,20,0,0,1,17.13-6.71,18.411,18.411,0,0,1,3.881.859c.056.019.116.035.172.054l0,0a45.55,45.55,0,0,0-32.279-.775l-.034.042Z" opacity="0.3" fill="url(#w)" style="mix-blend-mode:multiply;isolation:isolate"/><path d="M217.457,110.413c-4.236-10.354-12.615-17.83-19.984-21.959-.089,1.05-.2,2.132-.345,3.256a49.234,49.234,0,0,1-2.41,10.109c4.8,3.536,9.458,8.79,11.518,14.964a20.007,20.007,0,0,1-2.753,18.19A18.441,18.441,0,0,1,200.8,137.9l-.042.039a45.841,45.841,0,0,0,16.726-27.465c-.009-.021-.016-.044-.025-.065Z" opacity="0.3" fill="url(#x)" style="mix-blend-mode:multiply;isolation:isolate"/><path d="M161.336,89.946a45.863,45.863,0,0,0,1.146,6.044,43.625,43.625,0,0,1,12.112-1.147c.206.014.407.018.615.035l.023,0a41.544,41.544,0,0,1,7.609,1.371,46.76,46.76,0,0,0,1.369-5.833,45.214,45.214,0,0,0,.468-6.882,52.293,52.293,0,0,0-17.36-1.369,50.973,50.973,0,0,0-5.948.752A30.863,30.863,0,0,0,161.336,89.946Z" opacity="0.3" fill="url(#y)" style="mix-blend-mode:multiply;isolation:isolate"/><path d="M407.157,86.965,399.641,107.9h.056l7.5-20.814Z" fill="url(#z)"/><path d="M273.672,86.965,266.156,107.9h.023l7.521-20.86Z" fill="url(#aa)"/><path d="M275.549,92.195l5.639,15.709h-11.3l-2.855,7.919h17.044l4.832,13.421h10.8l-19.7-49.418Z" fill="url(#ab)"/><path d="M266.156,107.9l7.516-20.939.028.079,3.174-8.8h-8.3l-20.268,51h10.18l7.695-21.341Z" fill="url(#ac)"/><path d="M332.462,102.97a46.546,46.546,0,0,0-9.8-4.06,43.167,43.167,0,0,1-5.47-2.114,6.484,6.484,0,0,1-2.751-2.213,5.414,5.414,0,0,1-.772-2.92,5.256,5.256,0,0,1,2.282-4.564,10.916,10.916,0,0,1,6.375-1.61,26.415,26.415,0,0,1,7.013,1.006,24.7,24.7,0,0,1,6.477,2.751l1.409-8.253a25.552,25.552,0,0,0-7.013-2.785,33.461,33.461,0,0,0-8.221-1.04,23.7,23.7,0,0,0-9.664,1.811,14.458,14.458,0,0,0-6.342,5.167,13.884,13.884,0,0,0-2.249,7.919,14.231,14.231,0,0,0,1.51,6.745,13.027,13.027,0,0,0,4.933,4.933,39.239,39.239,0,0,0,8.993,3.757,44.029,44.029,0,0,1,6.242,2.283,7.59,7.59,0,0,1,3.087,2.382,5.508,5.508,0,0,1,.872,3.12,5.664,5.664,0,0,1-2.584,4.934A12.468,12.468,0,0,1,319.644,122a29.986,29.986,0,0,1-8.288-1.241,31.147,31.147,0,0,1-7.55-3.187l-.94,8.522a19.1,19.1,0,0,0,4.7,2.215,39.345,39.345,0,0,0,6.074,1.476,39.822,39.822,0,0,0,6.475.538q9.06,0,14.228-4.128t5.168-11.442A13.074,13.074,0,0,0,337.831,108,14.706,14.706,0,0,0,332.462,102.97Z" fill="url(#ad)"/><rect width="43.152" height="8.318" transform="translate(342.865 78.24)" fill="url(#ae)"/><rect width="10.268" height="39.201" transform="translate(359.306 90.044)" fill="url(#af)"/><path d="M399.641,107.9l7.516-20.939.045.125,3.191-8.85h-8.336l-20.268,51h10.2l4.831-13.421h.02L399.7,107.9Z" fill="url(#ag)"/><path d="M409.05,92.239l5.623,15.664H403.4l-2.855,7.919h17.012l4.833,13.421h10.8L413.511,79.867Z" fill="url(#ah)"/><path d="M466.415,108.575a17.443,17.443,0,0,0,6.04-5.6,14.465,14.465,0,0,0,2.35-8.22,16.383,16.383,0,0,0-2.282-8.791,15.032,15.032,0,0,0-6.509-5.705,23.217,23.217,0,0,0-10.067-2.014h-3.566v7.719H454.6q10.2,0,10.2,8.724t-10.536,8.725h-1.888v7.717h5.243l10.739,18.12h11.475Z" fill="url(#ai)"/><rect width="9.726" height="51.005" transform="translate(439.169 78.24)" fill="url(#aj)"/></g></svg>