<svg xmlns="http://www.w3.org/2000/svg" viewBox="0 0 355.227 44.046">
	<path fill="#fff" d="M88.169 3.353v11.328h-9.176v28.434H66.759V14.681h-9.063V3.353zM139.42 23.234h-.36.36zM158.771 43.114h-11.99l-5.61-12.58v-11.58c.45.42 1.03.67 1.68.67 1.41 0 2.56-1.2 2.56-2.68s-1.15-2.67-2.56-2.67h-3.79v28.84h-11.49V3.354h20.1c5.5 0 9.97 5.24 9.97 11.71 0 4.27-1.95 8.01-4.86 10.05v4.07l5.99 13.93zM228.607 3.706h-12.57c-5.522 0-10 4.477-10 10v19.056c0 5.523 4.478 10 10 10h12.57V30.965h-9.293a1.5 1.5 0 01-1.5-1.5v-.31a1.5 1.5 0 011.5-1.5h9.293v-8.94h-8.098a2 2 0 01-2-2v-.386a2 2 0 012-2h8.043l.055-10.623zM29.13 43.653V17.985c0-8.38-6.52-15.17-14.57-15.17C6.52 2.815 0 9.605 0 17.985v-.002 25.67h11.663v-9.53h3.616v-10.59h-3.016v-7.094l-.002-.004c0-1.32 1.03-2.39 2.3-2.39s2.3 1.07 2.3 2.39l.004.004v27.214h12.266zM39.399 25.178a17.43 17.43 0 01-2.137-8.345l-.001-1.541c0-7.11 4.18-12.87 9.34-12.87h-.002 8.432v11.81c-.17-.03-.36-.05-.54-.05-1.504 0-2.827 1.062-3.58 2.663-.67 1.428-.657 3.085-.15 4.579l.968 2.85c.61 1.71 1.472 4.878 1.472 6.908 0 7.1-4.18 12.86-9.34 12.86l.001.004h-9.336l-.005-11.794c.44.16.91.24 1.4.24 1.285 0 2.447-.578 3.289-1.513 1.291-1.435 1.398-3.589.472-5.283l-.283-.518zM119.883 43.653V17.985c0-8.38-6.52-15.17-14.57-15.17-8.04 0-14.56 6.79-14.56 15.17l-.001-.002v25.67h11.663v-9.53h3.616v-10.59h-3.016v-7.094l-.002-.004c0-1.32 1.03-2.39 2.3-2.39 1.27 0 2.3 1.07 2.3 2.39l.004.004v27.214h12.266zM177.123 43.116v-.002l-.002-11.468h4.26c4.52 0 8.19-3.67 8.19-8.19s-3.67-8.19-8.19-8.19h.001-6.246v27.848h-11.92V3.352h19.02l-.005.004c10.51 0 19.02 8.9 19.02 19.88s-9.042 19.88-19.552 19.88h-4.576zM260.031.01V0M267.006 31.273c0 5.7-3.565 10.416-9.045 11.216-1.42.355-2.902.553-4.437.577-9.857.157-18.514-7.087-19.935-16.842C231.799 13.938 241.272 3.4 253.2 3.4c2.4 0 4.7.43 6.83 1.2v11.21a9.438 9.438 0 00-5.39-1.68c-5.22 0-9.46 4.23-9.46 9.46 0 1.15.2 2.25.57 3.27v.01c1.35 3.6 4.82 6.18 8.89 6.18.66 0 1.29-.07 1.91-.19v-2.76h-4.35l-.01-9.04 9.799-.003c1.136 0 2.218.52 2.916 1.416 1.942 2.493 2.1 5.006 2.1 8.8zM293.646 3.706h-12.569c-5.523 0-10 4.477-10 10v19.056c0 5.523 4.477 10 10 10h12.57V30.965h-9.293a1.5 1.5 0 01-1.5-1.5v-.31a1.5 1.5 0 011.5-1.5h9.293v-8.94h-8.099a2 2 0 01-2-2v-.386a2 2 0 012-2h8.043l.055-10.623zM300.42 43.668h10.79V17.66c0-1.82 1.361-3.3 3.03-3.3 1.68 0 3.04 1.48 3.04 3.3l-.001.002v26.006h12.026V16.36l-.004.88c0-7.98-6.46-14.44-14.44-14.44-7.98 0-14.44 6.46-14.44 14.44M339.594 25.178a17.43 17.43 0 01-2.136-8.345l-.002-1.541c0-7.11 4.18-12.87 9.34-12.87h-.002 8.433v11.81a3.19 3.19 0 00-.54-.05c-1.505 0-2.827 1.062-3.58 2.663-.671 1.428-.658 3.085-.15 4.579l.968 2.85c.61 1.71 1.471 4.878 1.471 6.908 0 7.1-4.18 12.86-9.34 12.86l.002.004h-9.337l-.005-11.794c.44.16.91.24 1.4.24 1.285 0 2.448-.578 3.29-1.513 1.29-1.435 1.398-3.589.472-5.283l-.284-.518z"/>
</svg>
