<svg xmlns="http://www.w3.org/2000/svg" width="634.184" height="214.877" viewBox="0 0 634.184 214.877"><g transform="translate(-164.087 -279.064)"><path d="M10.4-8443.841a35.056,35.056,0,0,1-6.767-21.477,38.16,38.16,0,0,1,4.461-18.288,32.292,32.292,0,0,1,12.283-12.919,33.2,33.2,0,0,1,17.087-4.582,31.3,31.3,0,0,1,14.218,3.53,7.741,7.741,0,0,0,2.942,1.078,3.24,3.24,0,0,0,2.3-.933,7.638,7.638,0,0,0,1.814-3.676h1.716l1.519,22.6H60.453q-3.04-10.15-8.679-14.61a21.133,21.133,0,0,0-13.53-4.461,22,22,0,0,0-11.964,3.358q-5.344,3.359-8.408,10.712t-3.066,18.286a38.87,38.87,0,0,0,2.892,15.642,21.68,21.68,0,0,0,8.7,10.148,25.036,25.036,0,0,0,13.264,3.53,23.02,23.02,0,0,0,11.424-2.769q4.95-2.77,10.883-11.008l1.521.981q-5,8.871-11.669,12.992a29.551,29.551,0,0,1-15.837,4.118Q19.464-8431.584,10.4-8443.841Zm346.193,10.735v-1.813h2.5q4.218,0,6.03-2.745,1.032-1.569,1.031-7.258v-42.9q0-6.226-1.373-7.8a7.2,7.2,0,0,0-5.687-2.156h-2.5v-1.814h30.1v1.814q-5.3-.05-7.427.98a5.99,5.99,0,0,0-2.918,2.6q-.784,1.567-.783,7.5v41.771q0,4.072.783,5.592a3.5,3.5,0,0,0,1.814,1.519q1.227.492,7.648.49h4.854q7.648,0,10.738-1.128a13.991,13.991,0,0,0,5.639-3.994,32.837,32.837,0,0,0,5.1-9.046l1.616.343-5.687,18.041Zm-29.369,0v-1.813q3.971-.195,5.368-1.323a3.408,3.408,0,0,0,1.4-2.745q0-2.158-1.959-6.815l-4.021-9.56H302.262l-4.511,10.49a16.618,16.618,0,0,0-1.666,5.787,3.355,3.355,0,0,0,1.447,2.671q1.445,1.153,6.251,1.5v1.813H282.847v-1.813q4.166-.735,5.394-1.912,2.5-2.353,5.539-9.562l23.387-54.714h1.716l23.14,55.3q2.8,6.669,5.075,8.653a10.348,10.348,0,0,0,6.349,2.23v1.813Zm-23.435-25.887H326.63l-11.276-26.868Zm-58.394,25.887v-1.813h2.354q4.215,0,5.98-2.55,1.081-1.569,1.081-7.157v-50.794h-7.993a22.3,22.3,0,0,0-6.618.686,9.087,9.087,0,0,0-4.363,3.58,14.488,14.488,0,0,0-2.159,7.158h-1.862l.783-15.592h54.276L287.6-8484H285.74a18.813,18.813,0,0,0-1.471-5.885,9.858,9.858,0,0,0-4.044-4.191,14.11,14.11,0,0,0-6.644-1.348h-9.365v50.794q0,6.127,1.324,7.647,1.865,2.061,5.737,2.06h2.3v1.813Zm-47.558,0v-1.813h2.354q4.117,0,5.982-2.4,1.175-1.569,1.176-7.551v-42.949q0-5.048-.638-6.668a4.413,4.413,0,0,0-2.009-2.106,9.288,9.288,0,0,0-4.511-1.178h-2.354v-1.814h28.486v1.814h-2.4q-4.071,0-5.934,2.4-1.224,1.569-1.226,7.551v42.949q0,5.052.638,6.668a4.388,4.388,0,0,0,2.059,2.109,9.018,9.018,0,0,0,4.463,1.176h2.4v1.813Zm-56.678,0v-1.813h2.5q4.215,0,6.03-2.745.98-1.519.981-7.208v-42.949q0-6.275-1.324-7.8a7.2,7.2,0,0,0-5.687-2.156h-2.5v-1.814h24.368q8.924,0,14.071,1.838a19.371,19.371,0,0,1,8.679,6.2,15.952,15.952,0,0,1,3.53,10.346,17.433,17.433,0,0,1-5.37,13.237q-5.367,5.1-15.173,5.1a43.075,43.075,0,0,1-5.2-.343q-2.792-.341-5.98-1.03v19.366q0,6.275,1.371,7.8,1.865,2.158,5.639,2.157h2.549v1.813Zm18.927-61.579v27.651q2.6.491,4.608.735a28.658,28.658,0,0,0,3.43.245,11.667,11.667,0,0,0,8.8-3.946,14.34,14.34,0,0,0,3.7-10.222,18.4,18.4,0,0,0-1.766-8.018,12.175,12.175,0,0,0-5-5.539,14.621,14.621,0,0,0-7.353-1.84A29.066,29.066,0,0,0,160.08-8494.685Zm-47.951,61.579v-1.813q3.971-.195,5.368-1.323a3.408,3.408,0,0,0,1.4-2.745q0-2.158-1.961-6.815l-4.02-9.56H87.173l-4.511,10.49A16.618,16.618,0,0,0,81-8439.085a3.355,3.355,0,0,0,1.447,2.671q1.445,1.153,6.251,1.5v1.813H67.758v-1.813q4.166-.735,5.392-1.912,2.5-2.353,5.541-9.562l23.387-54.714h1.714l23.142,55.3q2.8,6.669,5.075,8.653a10.343,10.343,0,0,0,6.349,2.23v1.813Zm-23.435-25.887h22.847l-11.278-26.868Zm72.625-72.818a35.319,35.319,0,0,1-13.8-17.531q-2.711-7.534-2.71-28.284v-44.883q0-10.588-2.923-13.889t-9.443-3.3h-4.318v-3.131h49.626v3.131h-4.4q-7.111,0-10.161,4.489-2.119,3.05-2.118,12.7v50.049a110.094,110.094,0,0,0,1.228,15.329q1.227,8.637,4.446,13.463a24.188,24.188,0,0,0,9.273,7.963q6.054,3.13,14.863,3.131a40.983,40.983,0,0,0,20.155-4.91q8.892-4.915,12.153-12.575t3.261-25.957v-46.492q0-10.756-2.372-13.466-3.3-3.727-9.825-3.728H209.93v-3.131h40.648v3.131h-4.318a11.667,11.667,0,0,0-10.417,5.674q-1.777,2.626-1.779,12.2v46.577q0,17.275-3.428,26.8t-13.465,16.345q-10.037,6.819-27.312,6.817Q171.059-8525.29,161.319-8531.811Zm200.2,3.811v-3.134q8.13-.168,10.5-1.4a6.943,6.943,0,0,0,3.3-3.3q.931-2.076.931-12.406v-61.991q0-12.533-.846-16.091a6.793,6.793,0,0,0-2.159-3.979,5.807,5.807,0,0,0-3.769-1.271q-3.134,0-8.722,2.626l-1.271-2.626,27.946-13.635h2.795v96.968q0,9.653.8,12.024a6.276,6.276,0,0,0,3.346,3.641q2.539,1.273,10.332,1.44V-8528Zm-105.351,0v-3.134q29.9-27.27,42.09-44.544t12.194-31.589q0-10.923-6.689-17.952a21.332,21.332,0,0,0-16.006-7.03,25.016,25.016,0,0,0-15.2,4.953q-6.734,4.954-9.95,14.524h-3.133q2.115-15.668,10.881-24.049t21.893-8.387q13.972,0,23.331,8.979t9.358,21.17a41,41,0,0,1-4.066,17.447q-6.265,13.718-20.324,29.046-21.086,23.036-26.338,27.776h29.979a81.978,81.978,0,0,0,12.83-.677,16.733,16.733,0,0,0,6.648-2.751,18.038,18.038,0,0,0,5.166-5.887h3.133l-8.045,22.1Zm-176.232,0v-3.134q6.861-.338,9.273-2.286a5.9,5.9,0,0,0,2.415-4.741q0-3.727-3.389-11.772l-6.943-16.515H36.831l-7.791,18.124q-2.88,6.688-2.879,9.992a5.8,5.8,0,0,0,2.5,4.614q2.5,1.992,10.8,2.584V-8528H3.294v-3.134q7.2-1.269,9.317-3.3,4.319-4.065,9.568-16.514l40.4-94.512h2.964l39.973,95.527q4.827,11.517,8.764,14.947t10.968,3.853V-8528Zm-40.478-44.714H78.919l-19.478-46.408Z" transform="translate(383.876 8925.025)" fill="#fff"/><path d="M35.987-8431.084a34.2,34.2,0,0,1-14.876-3.113,29.838,29.838,0,0,1-11.118-9.347,34.081,34.081,0,0,1-5.15-10.077,38.89,38.89,0,0,1-1.715-11.7,40.84,40.84,0,0,1,1.13-9.667,37.766,37.766,0,0,1,3.39-8.856,34.5,34.5,0,0,1,5.38-7.506,32.393,32.393,0,0,1,7.09-5.609,33.755,33.755,0,0,1,8.305-3.488,34.931,34.931,0,0,1,9.034-1.162,31.937,31.937,0,0,1,14.443,3.584l.007,0A7.042,7.042,0,0,0,54.618-8497a2.732,2.732,0,0,0,1.952-.787,7.2,7.2,0,0,0,1.679-3.434l.089-.388H60.92l1.586,23.6H60.081l-.107-.356a38.66,38.66,0,0,0-3.64-8.615,20.742,20.742,0,0,0-4.87-5.746,19.6,19.6,0,0,0-6.048-3.264,22.9,22.9,0,0,0-7.173-1.09,21.616,21.616,0,0,0-11.7,3.281,18.339,18.339,0,0,0-4.647,4.243,26.707,26.707,0,0,0-3.565,6.238c-2.009,4.817-3.027,10.9-3.027,18.094a38.555,38.555,0,0,0,2.85,15.441,22.771,22.771,0,0,0,3.544,5.721,20.593,20.593,0,0,0,4.96,4.2,24.655,24.655,0,0,0,13,3.458,22.632,22.632,0,0,0,11.18-2.705c3.224-1.8,6.832-5.459,10.721-10.863l.278-.386,2.316,1.494-.231.41a43.916,43.916,0,0,1-5.481,7.772,29.378,29.378,0,0,1-6.36,5.4,27.149,27.149,0,0,1-7.43,3.146A34.5,34.5,0,0,1,35.987-8431.084Zm1.471-69.522a33.882,33.882,0,0,0-8.775,1.129,32.69,32.69,0,0,0-8.059,3.385,31.367,31.367,0,0,0-6.871,5.436,33.487,33.487,0,0,0-5.223,7.288,36.758,36.758,0,0,0-3.3,8.622,39.834,39.834,0,0,0-1.1,9.43,37.886,37.886,0,0,0,1.669,11.4,33.079,33.079,0,0,0,5,9.783,28.835,28.835,0,0,0,10.746,9.039,33.2,33.2,0,0,0,14.444,3.016A33.51,33.51,0,0,0,44.4-8433.1a26.119,26.119,0,0,0,7.157-3.03,28.369,28.369,0,0,0,6.142-5.217,42.483,42.483,0,0,0,5.121-7.186L62.1-8449c-3.871,5.314-7.492,8.935-10.766,10.768a23.622,23.622,0,0,1-11.668,2.832,25.645,25.645,0,0,1-13.523-3.6,22.267,22.267,0,0,1-8.9-10.376,39.537,39.537,0,0,1-2.934-15.842c0-7.322,1.044-13.539,3.1-18.479,2.072-4.976,4.966-8.657,8.6-10.942a22.6,22.6,0,0,1,12.23-3.436,23.905,23.905,0,0,1,7.486,1.14,20.6,20.6,0,0,1,6.355,3.43,21.734,21.734,0,0,1,5.109,6.02,39.211,39.211,0,0,1,3.63,8.482h.613l-1.452-21.6h-.857a7.888,7.888,0,0,1-1.846,3.523l-.015.015a3.738,3.738,0,0,1-2.648,1.07,7.9,7.9,0,0,1-3.172-1.134A30.941,30.941,0,0,0,37.458-8500.606Zm370.975,68H356.088v-2.813h3c2.656,0,4.492-.824,5.612-2.521.432-.657.948-2.4.948-6.982v-42.9c0-4.991-.68-6.815-1.25-7.467a6.758,6.758,0,0,0-5.311-1.985h-3v-2.814h31.1v2.819l-.5,0c-.16,0-.319,0-.475,0-3.182,0-5.447.313-6.73.933a5.538,5.538,0,0,0-2.688,2.373c-.333.666-.73,2.469-.73,7.276v41.771a13.386,13.386,0,0,0,.723,5.354,2.99,2.99,0,0,0,1.559,1.292c.518.208,2.232.455,7.463.455h4.854c5.02,0,8.575-.369,10.566-1.1a13.56,13.56,0,0,0,5.437-3.856,32.563,32.563,0,0,0,5.01-8.9l.159-.385,2.562.543-.166.525Zm-51.346-1H407.7l5.411-17.166-.672-.143a32.667,32.667,0,0,1-5.027,8.8,14.545,14.545,0,0,1-5.842,4.132c-2.131.779-5.7,1.158-10.909,1.158h-4.854c-5.847,0-7.271-.3-7.834-.526a4,4,0,0,1-2.062-1.734l-.011-.02c-.564-1.1-.839-3-.839-5.82v-41.771c0-4.073.273-6.6.836-7.724a6.5,6.5,0,0,1,3.149-2.826c1.437-.693,3.774-1.031,7.144-1.032v-.812h-29.1v.814h2a7.7,7.7,0,0,1,6.061,2.325c1.009,1.152,1.5,3.811,1.5,8.127v42.9c0,3.93-.364,6.394-1.113,7.532-1.3,1.972-3.472,2.971-6.447,2.971h-2Zm-3.14,1h-27.23v-2.789l.475-.023c2.528-.124,4.237-.532,5.078-1.213a2.908,2.908,0,0,0,1.212-2.356c0-1.364-.646-3.592-1.92-6.621l-3.892-9.254h-25.08l-4.381,10.188a16.3,16.3,0,0,0-1.626,5.59,2.86,2.86,0,0,0,1.258,2.279c.605.483,2.132,1.115,5.975,1.388l.465.033v2.779H282.348v-2.733l.413-.072c2.668-.471,4.4-1.07,5.134-1.78l0,0c1.607-1.513,3.431-4.672,5.421-9.392l23.518-55.02h2.379l.128.307,23.14,55.3c1.824,4.353,3.487,7.2,4.942,8.47a9.916,9.916,0,0,0,6.05,2.108l.47.028Zm-26.23-1h25.23v-.849a10.587,10.587,0,0,1-6.177-2.318c-1.594-1.389-3.3-4.279-5.208-8.837l-23.012-55H317.5L294.24-8446.2c-2.071,4.911-3.921,8.094-5.653,9.727-.854.82-2.57,1.465-5.24,1.968v.9h19.936v-.851c-3.072-.251-5.057-.765-6.063-1.567a3.844,3.844,0,0,1-1.635-3.062,16.861,16.861,0,0,1,1.707-5.984l4.641-10.793h26.4l.129.307,4.021,9.56c1.345,3.2,2,5.489,2,7.009a3.9,3.9,0,0,1-1.584,3.135c-.964.779-2.661,1.241-5.181,1.406Zm-53.638,1H244.889v-2.813h2.854a8.716,8.716,0,0,0,3.406-.6,4.929,4.929,0,0,0,2.162-1.736c.452-.656.992-2.383.992-6.873v-50.294H246.81a21.988,21.988,0,0,0-6.451.657,8.645,8.645,0,0,0-4.117,3.391,14.075,14.075,0,0,0-2.073,6.914l-.035.462h-2.851l.833-16.592h55.228l.783,16.592H285.3l-.057-.435a18.5,18.5,0,0,0-1.417-5.717,9.413,9.413,0,0,0-3.838-3.984,13.705,13.705,0,0,0-6.408-1.288h-8.865v50.294c0,4.9.651,6.685,1.2,7.316,1.138,1.255,2.942,1.891,5.362,1.891h2.8Zm-28.191-1h27.191v-.813h-1.8c-2.717,0-4.772-.748-6.107-2.224l-.007-.008c-.973-1.119-1.446-3.728-1.446-7.976v-51.294h9.865a14.669,14.669,0,0,1,6.879,1.406,10.4,10.4,0,0,1,4.25,4.4,18.071,18.071,0,0,1,1.467,5.621h.9l-.688-14.592H233.068l-.733,14.592h.877a14.649,14.649,0,0,1,2.206-6.941,9.622,9.622,0,0,1,4.6-3.767l.007,0a22.469,22.469,0,0,1,6.783-.714H255.3v51.294c0,3.865-.382,6.3-1.169,7.44-1.27,1.836-3.421,2.767-6.392,2.767h-1.854Zm-19.072,1H197.331v-2.813h2.854c2.567,0,4.445-.741,5.583-2.2.491-.657,1.075-2.448,1.075-7.249v-42.949c0-3.287-.2-5.469-.6-6.484a3.945,3.945,0,0,0-1.789-1.854,8.842,8.842,0,0,0-4.266-1.113h-2.854v-2.814h29.486v2.814h-2.9c-2.574,0-4.386.723-5.539,2.208-.512.656-1.121,2.444-1.121,7.244v42.949c0,3.288.2,5.47.6,6.484a3.933,3.933,0,0,0,1.839,1.857,8.563,8.563,0,0,0,4.218,1.111h2.9Zm-28.486-1h27.486v-.813h-1.9a9.552,9.552,0,0,1-4.707-1.239,4.889,4.889,0,0,1-2.279-2.36c-.454-1.149-.674-3.391-.674-6.854v-42.949c0-4.139.436-6.71,1.332-7.858,1.336-1.721,3.465-2.594,6.328-2.594h1.9v-.814H198.331v.814h1.854a9.823,9.823,0,0,1,4.75,1.239l.011.006a4.909,4.909,0,0,1,2.223,2.353c.454,1.151.674,3.393.674,6.854v42.949c0,4.137-.417,6.7-1.276,7.851l-.005.007c-1.337,1.723-3.483,2.6-6.377,2.6h-1.854Zm-28.191,1H140.654v-2.813h3a8.226,8.226,0,0,0,3.408-.642,5.162,5.162,0,0,0,2.2-1.875c.411-.639.9-2.359.9-6.937v-42.949c0-5.031-.653-6.838-1.2-7.468a6.762,6.762,0,0,0-5.31-1.984h-3v-2.814h24.868c5.973,0,10.763.628,14.239,1.867a19.945,19.945,0,0,1,8.9,6.359,16.51,16.51,0,0,1,3.641,10.66,20.049,20.049,0,0,1-1.379,7.565,17.212,17.212,0,0,1-4.147,6.034,17.793,17.793,0,0,1-6.662,3.936,27.881,27.881,0,0,1-8.856,1.3,43.684,43.684,0,0,1-5.259-.347c-1.672-.2-3.492-.51-5.419-.91v18.75c0,5.03.675,6.834,1.242,7.461l.007.008a6.611,6.611,0,0,0,5.261,1.984h3.049Zm-28.486-1H169.14v-.813H167.09a7.557,7.557,0,0,1-6.013-2.325c-1.007-1.119-1.5-3.777-1.5-8.128v-19.985l.605.13c2.123.457,4.12.8,5.935,1.023a42.878,42.878,0,0,0,5.138.339,26.908,26.908,0,0,0,8.537-1.248,16.819,16.819,0,0,0,6.291-3.713,16.221,16.221,0,0,0,3.909-5.686,19.054,19.054,0,0,0,1.306-7.189,16.742,16.742,0,0,0-.856-5.416,15.092,15.092,0,0,0-2.563-4.615,18.972,18.972,0,0,0-8.458-6.047c-3.367-1.2-8.044-1.809-13.9-1.809H141.654v.814h2a7.71,7.71,0,0,1,6.061,2.324c.976,1.123,1.449,3.78,1.449,8.128v42.949c0,3.926-.347,6.372-1.06,7.479l0,0c-1.3,1.971-3.471,2.97-6.447,2.97h-2Zm-2.795,1h-27.23v-2.789l.475-.023c2.528-.124,4.237-.532,5.078-1.213a2.908,2.908,0,0,0,1.212-2.356c0-1.366-.647-3.594-1.922-6.621l-3.892-9.254H87.5l-4.381,10.188a16.3,16.3,0,0,0-1.626,5.59,2.86,2.86,0,0,0,1.258,2.279c.605.483,2.132,1.115,5.975,1.388l.465.033v2.779H67.258v-2.733l.413-.072c2.668-.472,4.395-1.07,5.132-1.78l0,0c1.608-1.512,3.433-4.671,5.423-9.392l23.518-55.02h2.377l.128.307L127.4-8446c1.825,4.355,3.488,7.205,4.942,8.47a9.907,9.907,0,0,0,6.05,2.108l.47.028Zm-26.23-1h25.23v-.849a10.576,10.576,0,0,1-6.177-2.318c-1.592-1.386-3.3-4.276-5.208-8.837l-23.014-55h-1.051L79.151-8446.2c-2.072,4.914-3.923,8.1-5.657,9.728-.853.819-2.568,1.465-5.236,1.967v.9H88.194v-.851c-3.072-.251-5.057-.765-6.063-1.567a3.844,3.844,0,0,1-1.635-3.062,16.861,16.861,0,0,1,1.707-5.984l4.641-10.793h26.4l.129.307,4.02,9.56c1.346,3.194,2,5.487,2,7.009a3.9,3.9,0,0,1-1.584,3.135c-.964.779-2.661,1.241-5.181,1.406Zm214.753-24.887H303.023l.3-.7,12.036-27.948.455,1.085Zm-22.84-1h21.335l-10.53-25.09Zm-192.25,1H87.934l.3-.7,12.034-27.949.455,1.085Zm-22.84-1h21.335l-10.532-25.09Zm78.665-6.061a29.261,29.261,0,0,1-3.492-.249c-1.33-.16-2.892-.41-4.64-.74l-.407-.077v-28.461l.385-.091a29.7,29.7,0,0,1,6.538-.946,15.173,15.173,0,0,1,7.6,1.905,12.719,12.719,0,0,1,5.205,5.759,18.986,18.986,0,0,1,1.815,8.232,14.882,14.882,0,0,1-3.837,10.563A12.2,12.2,0,0,1,168.119-8465.553Zm-7.539-1.9c1.562.288,2.963.508,4.168.654a28.285,28.285,0,0,0,3.37.241,11.041,11.041,0,0,0,4.546-.942,12.229,12.229,0,0,0,3.892-2.846,12.607,12.607,0,0,0,2.67-4.356,16.208,16.208,0,0,0,.9-5.523,18,18,0,0,0-1.718-7.8,11.745,11.745,0,0,0-4.8-5.319,14.191,14.191,0,0,0-7.106-1.774,27.788,27.788,0,0,0-5.922.829Zm29.277-57.342a75.568,75.568,0,0,1-16.646-1.644,36.361,36.361,0,0,1-12.171-4.962,36.614,36.614,0,0,1-8.435-7.749,36.7,36.7,0,0,1-5.56-10.024,47.556,47.556,0,0,1-2.061-10.964c-.451-4.707-.679-10.593-.679-17.493v-44.883c0-6.9-.941-11.46-2.8-13.558-1.839-2.081-4.89-3.136-9.068-3.136h-4.818v-4.131h50.626v4.131h-4.9a14.6,14.6,0,0,0-5.895,1.08,8.935,8.935,0,0,0-3.852,3.19l0,0c-1.346,1.938-2.028,6.116-2.028,12.419v50.049a110.128,110.128,0,0,0,1.223,15.259c.8,5.656,2.273,10.116,4.367,13.256a23.8,23.8,0,0,0,9.087,7.8,31.73,31.73,0,0,0,14.633,3.075,44.675,44.675,0,0,0,10.551-1.213,37.913,37.913,0,0,0,9.362-3.635,31.156,31.156,0,0,0,7.366-5.51,22.489,22.489,0,0,0,4.568-6.823c2.137-5.024,3.221-13.692,3.221-25.762v-46.492c0-7.01-.756-11.43-2.248-13.137a9.8,9.8,0,0,0-3.908-2.657,15.656,15.656,0,0,0-5.54-.9H209.43v-4.131h41.648v4.131h-4.818a11.885,11.885,0,0,0-5.753,1.358,11.788,11.788,0,0,0-4.243,4.086l-.007.01c-1.124,1.66-1.693,5.67-1.693,11.916v46.577a123.159,123.159,0,0,1-.861,15.4,55.393,55.393,0,0,1-2.6,11.569,30.282,30.282,0,0,1-5.166,9,40.238,40.238,0,0,1-8.488,7.591,37.366,37.366,0,0,1-12.006,5.186A64.836,64.836,0,0,1,189.857-8524.79ZM128.622-8640.2h3.818c4.477,0,7.78,1.169,9.817,3.474a11.714,11.714,0,0,1,2.307,5.352,44.342,44.342,0,0,1,.741,8.868v44.883c0,13.713.9,23.173,2.68,28.115a35.685,35.685,0,0,0,5.406,9.747,35.63,35.63,0,0,0,8.205,7.538,35.417,35.417,0,0,0,11.837,4.817,74.576,74.576,0,0,0,16.423,1.618,63.832,63.832,0,0,0,15.346-1.689,36.379,36.379,0,0,0,11.686-5.041,39.259,39.259,0,0,0,8.279-7.4,29.291,29.291,0,0,0,5-8.7c2.255-6.269,3.4-15.229,3.4-26.634v-46.577c0-6.534.609-10.614,1.862-12.472a12.186,12.186,0,0,1,10.834-5.9h3.818v-2.131H210.43v2.131h3.818c4.476,0,7.907,1.311,10.2,3.9,1.681,1.925,2.5,6.437,2.5,13.8v46.492a128.983,128.983,0,0,1-.819,15.7,40.351,40.351,0,0,1-2.482,10.455,23.468,23.468,0,0,1-4.769,7.127,32.149,32.149,0,0,1-7.6,5.69,38.894,38.894,0,0,1-9.609,3.731,45.69,45.69,0,0,1-10.788,1.241,32.72,32.72,0,0,1-15.092-3.187,24.788,24.788,0,0,1-9.46-8.13c-2.178-3.266-3.7-7.864-4.525-13.67a111.124,111.124,0,0,1-1.233-15.4v-50.049c0-6.6.721-10.846,2.2-12.985h0c2.121-3.124,5.678-4.708,10.575-4.708h3.9v-2.131H128.622Zm276.586,112.7H361.017v-4.123l.49-.011c5.314-.11,8.774-.562,10.282-1.341a6.482,6.482,0,0,0,3.076-3.063c.4-.9.887-3.751.887-12.2v-61.991c0-8.278-.28-13.653-.833-15.975l0-.01a6.341,6.341,0,0,0-1.985-3.7,5.343,5.343,0,0,0-3.454-1.16c-2,0-4.865.867-8.51,2.578l-.447.21-1.7-3.519.448-.219,28.05-13.686h3.41v97.468c0,6.351.262,10.342.778,11.863a5.747,5.747,0,0,0,3.1,3.354c1.617.811,5.022,1.277,10.12,1.388l.489.011Zm-43.191-1h42.191v-2.146c-5.044-.134-8.337-.619-10.056-1.481a6.787,6.787,0,0,1-3.6-3.928c-.559-1.648-.831-5.634-.831-12.185v-96.468h-2.179l-27.394,13.365.84,1.734c3.612-1.658,6.392-2.465,8.487-2.465a6.316,6.316,0,0,1,4.083,1.383,7.3,7.3,0,0,1,2.332,4.258c.578,2.435.858,7.733.858,16.2v61.991c0,7.023-.319,11.148-.975,12.611a7.458,7.458,0,0,1-3.529,3.542c-1.619.836-4.969,1.309-10.231,1.44Zm-37.751,1h-68.6v-3.854l.163-.148c9.91-9.039,18.47-17.364,25.444-24.745a186.433,186.433,0,0,0,16.575-19.718,77.2,77.2,0,0,0,9.088-16.427,41.5,41.5,0,0,0,3.015-14.874,27.946,27.946,0,0,0-1.641-9.776,22.906,22.906,0,0,0-4.91-7.831,22.4,22.4,0,0,0-7.186-5.159,20.886,20.886,0,0,0-8.458-1.716,25.383,25.383,0,0,0-7.879,1.214,24.865,24.865,0,0,0-7.026,3.642,24.761,24.761,0,0,0-5.738,5.989,33.613,33.613,0,0,0-4.035,8.292l-.115.341H258.9l.077-.566a50.316,50.316,0,0,1,3.818-13.985,33.084,33.084,0,0,1,7.213-10.358,29.946,29.946,0,0,1,10.022-6.4,34.04,34.04,0,0,1,12.216-2.13,36.086,36.086,0,0,1,13,2.277,31.994,31.994,0,0,1,10.679,6.84,31.5,31.5,0,0,1,7.129,9.939,28.477,28.477,0,0,1,2.382,11.592,41.681,41.681,0,0,1-4.113,17.658,91,91,0,0,1-8.258,14.2,147.794,147.794,0,0,1-12.151,14.976c-12.88,14.071-21.423,23.118-25.435,26.938h28.708a81.908,81.908,0,0,0,12.739-.669,16.308,16.308,0,0,0,6.452-2.669,17.634,17.634,0,0,0,5.02-5.727l.144-.25h4.136Zm-67.6-1h66.9l7.681-21.1h-2.132a18.43,18.43,0,0,1-5.166,5.8,17.306,17.306,0,0,1-6.845,2.834,82.856,82.856,0,0,1-12.92.685H272.906l.964-.871c3.485-3.147,12.335-12.481,26.3-27.743a146.787,146.787,0,0,0,12.069-14.873,90.005,90.005,0,0,0,8.169-14.043,40.7,40.7,0,0,0,4.021-17.239,27.484,27.484,0,0,0-2.3-11.187,30.512,30.512,0,0,0-6.907-9.622,30.989,30.989,0,0,0-10.346-6.628,35.085,35.085,0,0,0-12.639-2.211,33.047,33.047,0,0,0-11.858,2.063,28.958,28.958,0,0,0-9.688,6.185,32.089,32.089,0,0,0-6.993,10.048,48.83,48.83,0,0,0-3.659,13.14h2.2a34.387,34.387,0,0,1,4.042-8.2,25.731,25.731,0,0,1,5.97-6.229,25.866,25.866,0,0,1,7.308-3.788,26.393,26.393,0,0,1,8.189-1.263,21.885,21.885,0,0,1,8.86,1.8,23.4,23.4,0,0,1,7.508,5.386,23.9,23.9,0,0,1,5.123,8.172,28.935,28.935,0,0,1,1.7,10.125,42.5,42.5,0,0,1-3.082,15.234,78.2,78.2,0,0,1-9.2,16.643A187.446,187.446,0,0,1,282-8555.561c-6.953,7.357-15.476,15.649-25.334,24.647Zm-130.923,1H79.435v-4.109l.475-.023c4.447-.22,7.469-.951,8.984-2.176a5.373,5.373,0,0,0,2.229-4.353c0-2.4-1.127-6.3-3.35-11.578l-6.815-16.209H37.16L29.5-8548.127c-1.884,4.374-2.839,7.669-2.839,9.795a5.28,5.28,0,0,0,2.309,4.223c1.578,1.259,5.119,2.092,10.523,2.477l.464.033v4.1H2.794v-4.054l.413-.072c4.674-.824,7.722-1.891,9.058-3.171,2.818-2.651,6-8.15,9.454-16.347l40.527-94.817h3.627l.128.307,39.973,95.527c3.173,7.571,6.077,12.539,8.631,14.764,2.529,2.2,6.119,3.457,10.669,3.73l.47.028Zm-45.308-1h44.308v-2.167c-4.555-.344-8.186-1.669-10.8-3.942a22.753,22.753,0,0,1-4.263-5.576,81.954,81.954,0,0,1-4.634-9.555l-39.844-95.221H62.9l-40.266,94.208a94.264,94.264,0,0,1-5.044,10.407,28.075,28.075,0,0,1-4.641,6.274c-1.457,1.4-4.456,2.5-9.159,3.355v2.216H38.956v-2.17c-5.422-.42-8.9-1.29-10.61-2.657a6.294,6.294,0,0,1-2.686-5c0-2.263.982-5.69,2.92-10.189l7.921-18.427H81.623l.129.307,6.943,16.515c2.307,5.478,3.428,9.392,3.428,11.966a6.4,6.4,0,0,1-2.6,5.131c-1.648,1.332-4.623,2.108-9.087,2.37Zm-.763-43.714H38.7l.3-.7,20.45-47.489.455,1.085Zm-39.455-1H78.167l-18.731-44.63Z" transform="translate(383.876 8925.025)" fill="rgba(0,0,0,0)"/><path d="M170.587,488.173,249.163,409.6a6.832,6.832,0,0,1,9.66,0L337.4,488.173" fill="#fff"/><path d="M337.4,456.5a6.48,6.48,0,0,1-4.6-1.9l-78.81-78.81-78.81,78.81a6.5,6.5,0,0,1-9.192-9.192L249.4,362a6.5,6.5,0,0,1,9.192,0L342,445.407a6.5,6.5,0,0,1-4.6,11.1Z" fill="#fff"/><path d="M337.4,416.918a6.48,6.48,0,0,1-4.6-1.9l-78.81-78.81-78.81,78.81a6.5,6.5,0,0,1-9.192-9.192L249.4,322.416a6.5,6.5,0,0,1,9.192,0L342,405.822a6.5,6.5,0,0,1-4.6,11.1Z" fill="#fff"/><path d="M337.4,377.333a6.48,6.48,0,0,1-4.6-1.9l-78.81-78.81-78.81,78.81a6.5,6.5,0,0,1-9.192-9.192L249.4,282.831a6.5,6.5,0,0,1,9.192,0L342,366.237a6.5,6.5,0,0,1-4.6,11.1Z" fill="#fff"/></g></svg>