<svg xmlns="http://www.w3.org/2000/svg" viewBox="0 0 251.78 76.74"><defs><style>.cls-1{fill:#fff;}</style></defs><g id="图层_2" data-name="图层 2"><g id="图层_1-2" data-name="图层 1"><path class="cls-1" d="M29.68,27.56H11.1V10.79H41c7,.05,12.12,3,15.64,9A16.23,16.23,0,0,1,59,25.94c.08.64.14,1.43.2,2.44l0,.71H70.36l0-.78c-.09-2.74-.23-4.94-.42-6.51v0a23.55,23.55,0,0,0-3.37-9C61.58,4.38,54.05.06,44.13,0H0V38.37H29.68Z"/><path class="cls-1" d="M40.78,38.36V49.17H59c-.08.89-.17,1.63-.28,2.23a13.23,13.23,0,0,1-.82,3,30,30,0,0,1-1.46,2.76,18.2,18.2,0,0,1-6.29,6.19,17.46,17.46,0,0,1-9.74,2.6H11.1V47.64H0v29.1H43.39a25,25,0,0,0,14-3.75,26.09,26.09,0,0,0,9-8.86,42.39,42.39,0,0,0,2.06-3.89,20.07,20.07,0,0,0,1.22-4.41c.56-3.16.85-8.79.85-16.71v-.76Z"/><path class="cls-1" d="M89.55,63.63a12.22,12.22,0,0,0,4.38-.87c1.58-.81,2.37-2.3,2.37-4.45V18.49a4.51,4.51,0,0,0-2.25-4.34,12.63,12.63,0,0,0-4.49-1V11.11h24.68q14.94,0,22.79,8,7.14,7.26,7.14,19.48A26,26,0,0,1,137,57.12q-8.09,8.55-21.92,8.56H89.56V63.63Zm20.72-1.77c.54.74,1.69,1.1,3.45,1.1a15.24,15.24,0,0,0,11.79-5.07q4.62-5.07,4.61-19.46a39.37,39.37,0,0,0-2.48-14.71q-4-9.9-13.56-9.9c-2.1,0-3.47.45-4.1,1.34a6.18,6.18,0,0,0-.63,3.35V58.25A6.69,6.69,0,0,0,110.27,61.86Z"/><path class="cls-1" d="M147.53,63.63a11.35,11.35,0,0,0,4.93-1q2.25-1.26,2.25-4.73V18.88q0-3.51-2.21-4.73a13.06,13.06,0,0,0-5-1V11.11H193.3V27.39h-2q-1.5-7.53-5.05-10.55t-13.09-3c-2.37,0-3.87.27-4.51.81a3.81,3.81,0,0,0-1,3V36.34q6.54.12,8.85-2.76t3.49-9.19h2V51.67h-2q-.83-6.54-3.33-9.54t-9-3V57.94q0,3.75,2.19,4.75a16.18,16.18,0,0,0,6.68.93v2.05H147.52v-2Z"/><path class="cls-1" d="M203.62,19.09Q211.33,11,223.33,11a26.93,26.93,0,0,1,9.57,1.8q4.77,1.8,5.94,1.8a2.51,2.51,0,0,0,2-.87A6.89,6.89,0,0,0,242.09,11h2.16V29.16h-2a42.32,42.32,0,0,0-5.71-9.3q-5.44-6.28-12.33-6.28a11.51,11.51,0,0,0-10.93,6.51q-3.44,6.51-3.44,18.31a44,44,0,0,0,3.2,17.27q3.19,7.59,12.35,7.58,5,0,6.66-2.08a5.42,5.42,0,0,0,1-3.56V49.44c0-2.35-.72-3.88-2.16-4.61-.93-.45-2.82-.71-5.67-.76v-2h26.55v2c-2.67.1-4.45.64-5.31,1.61s-1.31,2.79-1.31,5.47V61a34.12,34.12,0,0,1-8.32,3.18A48.22,48.22,0,0,1,224,65.79q-12.9,0-20.61-8.13-7.19-7.6-7.19-19.06A27.28,27.28,0,0,1,203.62,19.09Z"/></g></g></svg>