<svg xmlns="http://www.w3.org/2000/svg" viewBox="0 0 760.9 321.3"><path d="M392.4 12.8L342.2.1c-.6-.1-1.2-.1-1.7 0l-50.3 12.8c-1.5.4-2.6 1.8-2.6 3.4v288.8c0 1.6 1.1 3 2.6 3.4l50.3 12.7c.3.1.6.1.9.1s.6 0 .8-.1l50.3-12.8c1.5-.4 2.6-1.8 2.6-3.4V16.2c-.1-1.6-1.2-3-2.7-3.4zm-4.3 7.9v279.7l-43.3-11.3V31.8l43.3-11.1zm-10.5 284.2l-36.3 9.3L305 305l36.3-9.5 36.3 9.4zM305 16.3l36.2-9.2 36.2 9.2-36.2 9.3-36.2-9.3zm32.8 15.6v257.3l-43.3 11.3V20.8l43.3 11.1zM49.4.8c-.7 0-1.3.2-1.9.6L1.6 31.6c-1 .6-1.6 1.7-1.6 2.9v258.6c0 1.4.8 2.6 2.1 3.2l56.5 24.5c.4.2.9.3 1.4.3h.2l.2-.1c24.9-2.2 49.3-8 72.6-17.1 50-19.8 82.1-53 92.8-95.9 2.6-10.4 3.5-24.1 3.5-33.5.2-2.5 5.5-60.6-23.7-105.8C179.3 28.1 116.6.8 49.4.8zM49 247.4c18.9 2.2 37.9 1 56.5-3.4 21-5 38.6-13.8 50.9-25.5 2.1-2 4-4 5.8-6.2-2.9 7.5-6.7 14.5-11.3 21-23.6 32.3-82.6 55.4-143.9 56.2V36.4l38.9-25.6V244c0 1.7 1.3 3.2 3.1 3.4zM178.1 81.1C155.9 67.6 126.6 59.5 91 57h-.3c-1.9 0-3.5 1.6-3.4 3.5v179.8c-11.4 1.5-23 1.7-34.4.6V7.8c63.5.9 122.4 26.8 146.9 64.7 10.1 15.5 16.9 34.5 20.4 56.4-8.5-19.9-22.6-35.9-42.1-47.8zM94.3 98.3c21.2 5.7 68.2 18.9 75.2 64.9.2.8.3 1.7.3 2.5 1.4 19-4.7 35.1-18.2 47.9-13.1 12.5-33.4 21.6-57.3 25.7v-141zm62.3 139.2c20.7-28.4 21.7-65.3 19.8-75.5-7.8-51.2-59.3-64.9-81.3-70.7l-.7-.2V64.4c56.7 4.7 124.5 27.2 128 107.3.2 9.4-.7 24.3-3.3 34.7-12.7 51.3-55.1 77.8-88.4 91-22.4 8.8-46 14.4-69.9 16.6l-41.4-17.9c59.2-3.5 114-26.8 137.2-58.6zm604 53.1L629.3 3c-.6-1.2-1.8-2-3.2-2h-67.3c-1.4 0-2.6.8-3.2 2L430.2 273.1c-.5 1.1-.4 2.3.2 3.3l25.9 42.6c.6 1 1.7 1.7 3 1.7h41.4c1.4 0 2.6-.8 3.2-2l25.9-55.4h126.1l25.6 55.3c.6 1.2 1.8 2 3.2 2h45.5c.9 0 1.7-.3 2.4-.9l27.3-25c1-1.1 1.3-2.8.7-4.1zm-12.1 4.8l-19.7 18.1h-35.2l19.7-18.1h35.2zm-64-55.2l23.2 51-21.9 20.1-23.5-50.7 22.2-20.4zM623 192.3h-60.6l30.2-65.7 30.4 65.7zM578.4 7.9l84.1 184.4h-31.8L575.3 72.6c-.6-1.2-1.8-2-3.2-2-1.3 0-2.6.8-3.2 2l-110 237.2-21.6-35.4L561 7.9h17.4zm-6.2 74.4l16.6 35.9-52.7 114.7c-.2.5-.3.9-.3 1.4 0 .9.4 1.8 1 2.5.7.7 1.5 1 2.5 1h137.4l-19.9 18.4H527.5c-1.3 0-2.6.8-3.2 2l-25.8 55.5h-33.7L572.2 82.3zm113.4 148.6h-141l14.5-31.6h108.7c.5 0 1-.1 1.5-.3 1.7-.8 2.5-2.9 1.7-4.6L585.9 8h37.9L752 288.6h-37.9L688.7 233c-.5-1.3-1.7-2.1-3.1-2.1z" fill="#fff"/></svg>
