<svg xmlns="http://www.w3.org/2000/svg" xmlns:xlink="http://www.w3.org/1999/xlink" viewBox="0 0 1080 640"><defs><style>.cls-1{fill:url(#DIA_Farbverlauf_01_b_-_o);}.cls-2{fill:url(#DIA_Farbverlauf_03_w_-_v);}.cls-3{fill:url(#Unbenannter_Verlauf_4);}.cls-4{fill:url(#DIA_Farbverlauf_01_b_-_o-2);}.cls-5{fill:#c7daea;}.cls-6{fill:url(#Unbenannter_Verlauf_4-2);}.cls-7{fill:url(#Unbenannter_Verlauf_14);}.cls-8{fill:url(#Unbenannter_Verlauf_4-3);}.cls-9{fill:url(#DIA_Farbverlauf_03_w_-_v-2);}.cls-10{fill:url(#Unbenannter_Verlauf_14-2);}</style><linearGradient id="DIA_Farbverlauf_01_b_-_o" x1="162.77" y1="306.81" x2="328.49" y2="306.81" gradientUnits="userSpaceOnUse"><stop offset="0" stop-color="#665afe"/><stop offset="1" stop-color="#f1b184"/></linearGradient><linearGradient id="DIA_Farbverlauf_03_w_-_v" x1="337.15" y1="264.38" x2="212.96" y2="448.5" gradientUnits="userSpaceOnUse"><stop offset="0" stop-color="#5c3598"/><stop offset="0.99" stop-color="#cce0f4"/></linearGradient><linearGradient id="Unbenannter_Verlauf_4" x1="137.48" y1="312.86" x2="363.78" y2="230.5" gradientUnits="userSpaceOnUse"><stop offset="0" stop-color="#b7fea8"/><stop offset="0.16" stop-color="#b5faaa"/><stop offset="0.32" stop-color="#b0eeb1"/><stop offset="0.48" stop-color="#a8dabc"/><stop offset="0.64" stop-color="#9cbecc"/><stop offset="0.8" stop-color="#8d99e0"/><stop offset="0.96" stop-color="#7b6ef8"/><stop offset="1" stop-color="#7662ff"/></linearGradient><linearGradient id="DIA_Farbverlauf_01_b_-_o-2" x1="543.15" y1="334.23" x2="409.88" y2="285.72" xlink:href="#DIA_Farbverlauf_01_b_-_o"/><linearGradient id="Unbenannter_Verlauf_4-2" x1="453.16" y1="270.11" x2="610.22" y2="360.79" xlink:href="#Unbenannter_Verlauf_4"/><linearGradient id="Unbenannter_Verlauf_14" x1="575.86" y1="338.64" x2="816.96" y2="296.13" gradientUnits="userSpaceOnUse"><stop offset="0" stop-color="#665afe"/><stop offset="0.01" stop-color="#695cfc"/><stop offset="0.35" stop-color="#a380c9"/><stop offset="0.64" stop-color="#cd9ba3"/><stop offset="0.87" stop-color="#e7ab8c"/><stop offset="1" stop-color="#f1b184"/></linearGradient><linearGradient id="Unbenannter_Verlauf_4-3" x1="733.6" y1="425.09" x2="882.79" y2="247.29" xlink:href="#Unbenannter_Verlauf_4"/><linearGradient id="DIA_Farbverlauf_03_w_-_v-2" x1="797.05" y1="258.84" x2="705.79" y2="509.58" xlink:href="#DIA_Farbverlauf_03_w_-_v"/><linearGradient id="Unbenannter_Verlauf_14-2" x1="906.24" y1="472.17" x2="817.81" y2="421.11" xlink:href="#Unbenannter_Verlauf_14"/></defs><g id="Logo"><path class="cls-1" d="M162.77,192.17l45.41-29.84V402.09c44.47-2.69,111.26-15.51,118.05-81.2,0,0,10.42,40.32-13.48,72.61-25.48,34.42-84.73,57.8-150,57.8Z"/><path class="cls-2" d="M253.85,218.27V258.2c18.49,5.09,61,21.39,72.47,63,0,0,.11.64.35,1.83.07.31.1.63.16.95,1.83,9.54,6,41.94-14.07,69.51-24.77,34-85.55,57.8-150,57.8l56,24.52s119.52-1.76,155.92-106.91a97.76,97.76,0,0,0,5.56-28.53C377,266.13,316.05,225,253.85,218.27Z"/><path class="cls-3" d="M354.37,221.88c-25.52-33.56-82.31-59.55-146.19-59.55V402.09c8.06-.48,17.11-1.34,26.37-2.79,4.33-.68,8.7-1.48,13-2.46,2.06-.47,4.3-1,6.31-1.53v-177c62.2,6.73,123.57,48.09,126.42,122.62C380.27,340.89,395.06,275.37,354.37,221.88Z"/><polygon class="cls-4" points="500.9 187.25 551.04 174.37 500.82 161.53 450.4 174.37 450.5 463.24 501 450.04 501 187.19 500.9 187.25"/><polygon class="cls-5" points="450.4 463.24 500.79 475.95 550.97 463.24 500.79 450.04 450.4 463.24"/><polygon class="cls-6" points="501 187.25 501 450.04 551.08 463.24 551.14 174.37 501 187.25"/><polygon class="cls-7" points="731.89 235.28 788.25 357 827.69 357 743.43 166 718.58 166 593.05 436.13 619.02 478.5 731.89 235.28"/><polygon class="cls-8" points="743.43 166 827.69 357 716.73 357 698.93 396 845.39 396 871.7 453.56 917.23 453.62 785.91 166 743.43 166"/><polygon class="cls-9" points="698.93 396 752.34 279.61 731.89 235.13 619.02 478 660.36 478 687.19 421 817.86 421 845.39 396 698.93 396"/><polygon class="cls-10" points="917.23 453.14 871.7 453.25 845.39 395.53 817.86 421.02 844.47 478 889.97 478 917.23 453.14"/></g></svg>