<svg xmlns="http://www.w3.org/2000/svg" viewBox="0 0 326.089 329.914">
	<path fill="#fff" d="M326.089.5h-.5V0H.5v.5H0v328.914h.5v.5h325.089v-.5h.5V.5zm-1 .5v327.914H1V1h324.089zM82.499 60.447v47.126h-9.17L49.674 79.66v27.913H39.653v-46.7h9.153l23.17 27.283h.097V60.447v.426H82.5m22.671 30.964h-.01m37.39-20.68l7.7 10.19 7.95-10.29h11.1l-13.52 17.61 14.16 18.74-11.95.17-8.26-11.02-8.46 11.02h-11.28l14.2-18.39-13.6-18.13 11.96.1zm53.256 27.021l2.262 7.572c-8.64 3.28-16.303 1.945-19.283-2.485-.62-.91-1.37-2.48-1.36-4.99v-19.28h-6v-7.86h6v-7.71l-.004-.572h10.25l.004.002v8.28h8.63v7.862l-.702-.002h-7.928v16.93c0 .818.261 1.635.82 2.233.137.149.268.263.38.35 2.081 1.63 5.498.276 6.195 0 .312-.124.565-.244.736-.33zM57.341 173.633l10.633-31.891h10.243l11.023 32.476 10.839-32.476h10.72L95.58 187.636H83.718l-10.379-31.27-10.73 31.27H50.706l-15.313-45.894h11.313l10.634 31.89zm121.11-21.986c-4.5 0-8.58 1.97-11.58 5.18v-17.97l-.002-.003h-10.157v49.563h10.157l.002-5.17c3 3.2 7.08 5.17 11.58 5.17 9.2 0 16.65-8.23 16.65-18.38s-7.45-18.39-16.65-18.39zm-2.643 28.895c-4.937 0-8.939-4.564-8.939-10.195s4.002-10.195 8.94-10.195 8.938 4.565 8.938 10.195-4.002 10.195-8.939 10.195zM74.191 236.947a14.771 14.771 0 00-11.61-5.63c-8.17 0-14.79 6.62-14.79 14.79s6.62 14.79 14.79 14.79c4.75 0 8.99-2.26 11.7-5.75l1.051.933 7.11 5.809c-4.85 5.388-11.93 8.898-19.86 8.898-14.12 0-25.57-11.14-25.57-24.88 0-13.75 11.45-24.89 25.57-24.89 7.76 0 14.7 3.36 19.38 8.67l-7.77 7.26zm77.565-3.835c-4.5 0-8.58 1.97-11.58 5.17l-.002-5.17h-10.157v49.563h10.157l.002-.003v-17.97c3 3.21 7.08 5.18 11.58 5.18 9.2 0 16.65-8.24 16.65-18.39s-7.45-18.38-16.65-18.38zm-2.643 28.265c-4.937 0-8.94-4.565-8.94-10.195s4.003-10.195 8.94-10.195c4.937 0 8.939 4.564 8.939 10.195 0 5.63-4.002 10.195-8.94 10.195zm37.457 8.292h-9.592v-36.557h9.592v36.557zm-4.796-52.924a6.123 6.123 0 100 12.246 6.123 6.123 0 000-12.246zm34.88 44.647l2.262 7.571c-8.64 3.28-16.303 1.946-19.283-2.484-.62-.91-1.37-2.48-1.36-4.99v-19.28h-6v-7.86h6v-7.71l-.004-.573h10.25l.004.003v8.28h4.77l3.86.001v7.86l-.702-.001h-7.928v16.929c0 .818.262 1.635.82 2.234.137.148.268.262.38.35 2.081 1.63 5.498.275 6.195 0a9.33 9.33 0 00.736-.33zm51.934 8.236v-51.102h9.905v51.102M110.131 70.207c-10.61 0-19.22 8.49-19.22 18.96 0 10.14 8.1 18.43 18.26 18.93.26.01.58.02.96.02 2.87.05 8.85-.12 12.97-2.95 1.57-1.08 2.77-2.27 3.66-3.34l-1.34-1.18-5.54-4.894a12.956 12.956 0 01-3.421 2.46c-5.427 2.666-12.001.91-13.938-1.748-1.351-1.854-1.617-3.885-1.617-3.885a7.71 7.71 0 01-.063-.777l28.296.178.003-.004c.14-.91.21-1.85.21-2.81 0-10.47-8.6-18.96-19.22-18.96zm9.052 15.926h-18.34l-.002-.686c0-4.15 4.081-7.51 9.13-7.51h.083c5.049 0 9.13 3.36 9.13 7.51l-.001.686zm10.808 65.42c-10.61 0-19.22 8.49-19.22 18.96 0 10.14 8.1 18.43 18.26 18.93.26.01.58.02.96.02 2.87.05 8.85-.12 12.97-2.95 1.57-1.08 2.77-2.27 3.66-3.34l-1.34-1.18-5.54-4.893a12.956 12.956 0 01-3.421 2.461c-5.427 2.665-12 .91-13.938-1.749-1.351-1.854-1.617-3.885-1.617-3.885a7.71 7.71 0 01-.063-.777l28.297.179.002-.005c.14-.91.21-1.85.21-2.81 0-10.47-8.6-18.96-19.22-18.96zm9.052 15.927h-18.34l-.002-.686c0-4.15 4.081-7.51 9.13-7.51h.083c5.049 0 9.13 3.36 9.13 7.51l-.001.686zm85.485 70l5.145 6.214c.05.06.117.034.17-.023 4.83-5.25 18.677-3.81 18.574 1.1v3.99c-40.676-7.422-22.983 35.128 0 15.94 0 1.031.002 3.42.004 4.474h9.604V243.63l.003.001c-.452-11.952-27.007-14.384-33.5-6.15zm15.707 25.393c-4.242.504-7.92-1.1-8.215-3.583-.295-2.483 2.906-4.904 7.148-5.407 4.243-.504 7.92 1.1 8.215 3.583s-2.905 4.904-7.148 5.407zM87.128 237.69l5.146 6.214c.049.06.117.034.169-.023 4.83-5.25 18.678-3.81 18.575 1.1v3.99c-40.676-7.422-22.983 35.128 0 15.94l.003 4.474h9.605v-25.547l.002.002c-.451-11.952-27.006-14.385-33.5-6.15zm15.708 25.393c-4.242.504-7.92-1.1-8.215-3.583-.295-2.483 2.905-4.904 7.148-5.407 4.242-.504 7.92 1.1 8.215 3.583.295 2.483-2.906 4.904-7.148 5.407z"/>
</svg>
