<svg xmlns="http://www.w3.org/2000/svg" width="191.216" height="40.817" viewBox="0 0 191.216 40.817"><path d="M-591.783-8258.185a1,1,0,0,1-1-1,1,1,0,0,1,1-1h118a1,1,0,0,1,1,1,1,1,0,0,1-1,1ZM-644.5-8259c-10.376,0-19.5-8.822-19.5-20.113A19.885,19.885,0,0,1-644.5-8299a21.981,21.981,0,0,1,5.34.665,17.858,17.858,0,0,0-3.38,2.93c-11.872-.41-17.86,8.184-17.86,16.288s5.4,16.135,17.912,16.464a23.947,23.947,0,0,0,3.328,2.956,18.326,18.326,0,0,1-5.013.7C-644.283-8259-644.392-8259-644.5-8259Zm10.589-1.739a19.173,19.173,0,0,1-6.392-4.424,19.666,19.666,0,0,1-4.084-6.4,20.746,20.746,0,0,1-.021-15.114,19.223,19.223,0,0,1,4.047-6.336,18.918,18.918,0,0,1,6.386-4.361,21.685,21.685,0,0,1,8.423-1.625,19.49,19.49,0,0,1,8.335,1.8,18.97,18.97,0,0,1,6.184,4.659,20.748,20.748,0,0,1,3.849,6.4,19.96,19.96,0,0,1,1.327,7.007,19.966,19.966,0,0,1-1.346,7.033,21.542,21.542,0,0,1-1.639,3.372,21.06,21.06,0,0,1-2.245,3.085,19.272,19.272,0,0,1-6.192,4.726,19.018,19.018,0,0,1-8.273,1.828c-.052,0-.106,0-.158,0A21.149,21.149,0,0,1-633.911-8260.74Zm-8.389-18.389a16.34,16.34,0,0,0,4.759,11.724,16.344,16.344,0,0,0,11.7,4.813c10.272,0,16.41-8.41,16.41-16.543,0-7.932-6.273-16.5-16.41-16.5C-635.688-8295.631-642.3-8287.1-642.3-8279.129Zm10.179,11.385a16.733,16.733,0,0,0,4.455-11.374,16.28,16.28,0,0,0-4.595-11.316,17.69,17.69,0,0,1,3.541-1.266c2.6,3.511,4.57,6.877,4.57,12.84a20.494,20.494,0,0,1-4.57,12.526A13.462,13.462,0,0,1-632.122-8267.744ZM-531.3-8282.37c0-9.2,6.665-13.7,14.146-13.7a18.108,18.108,0,0,1,6.942,1.6l1.012-.932h1.67l.212,9.242h-1.641c-2.218-7.055-5.5-8.307-8.2-8.307s-7,2.708-7,11.712,3.859,11.582,7,11.582a6.971,6.971,0,0,0,4.726-1.558v-5.014c0-2.681-3.812-2.626-3.812-2.626v-1.362h9.9v9.439a23.22,23.22,0,0,1-11.343,2.968C-524.3-8269.327-531.3-8273.168-531.3-8282.37Zm31.567.046c0-8.841,6.4-13.771,13.95-13.771a13.831,13.831,0,0,1,6.563,1.656l1.014-.925h1.739l.173,9.245h-1.675c-1.206-3.94-3.378-8.32-7.819-8.32s-6.757,4.707-6.757,11.484,2.637,11.043,7.771,11.043,8.012-5.448,8.012-5.448l1.5.973s-3.089,7.006-10.522,7.006S-499.73-8273.482-499.73-8282.324Zm-50.03,12.3h-13.394v-1.5c2.855,0,3.68-.581,3.68-2.591v-17.562c0-1.1-1.016-1.653-1.87-1.923a7.917,7.917,0,0,0-1.866-.32v-1.441h14.621a16.6,16.6,0,0,1,5.59.8c2.526.936,3.807,2.651,3.807,5.1a6.417,6.417,0,0,1-.973,3.5,7.082,7.082,0,0,1-2.139,2.116,9.869,9.869,0,0,1-3.114,1.321c.058.074,6.455,8.12,7.769,9.589a4.972,4.972,0,0,0,3.5,1.412h.067v1.5h-9.824a138.314,138.314,0,0,0-8.2-11.4h-1.054v7.314a2.268,2.268,0,0,0,1.381,2.212,4.659,4.659,0,0,0,1.87.381h.148v1.5Zm-3.4-13.186h1.658c3.285,0,5.169-2.066,5.169-5.674,0-4.207-3.241-4.836-5.169-4.836l-1.658,0Zm-34.582,13.136v-1.322c2.545,0,3.855-.489,3.855-2.475v-19.9h-3.258c-2.489,0-4.37,5.587-4.37,5.587h-1.4v-7.169h24.51v7.16h-1.485c-1.114-2.966-2.658-5.586-4.772-5.586h-2.885v19.9c0,2.594,3.914,2.477,3.914,2.477v1.331Z" transform="translate(663.999 8299.002)" fill="#fff"/></svg>