<svg xmlns="http://www.w3.org/2000/svg" xmlns:xlink="http://www.w3.org/1999/xlink" width="79.9272" height="79.9224" viewBox="0 0 79.9272 79.9224"><defs><linearGradient id="a" x1="5.2154" y1="20.1302" x2="49.0281" y2="45.4254" gradientUnits="userSpaceOnUse"><stop offset="0" stop-color="#a40056"/><stop offset="0.2315" stop-color="#ad005b"/><stop offset="0.615" stop-color="#c70069"/><stop offset="0.9944" stop-color="#e6007a"/></linearGradient><linearGradient id="b" x1="47.0665" y1="43.1618" x2="74.9667" y2="59.27" gradientUnits="userSpaceOnUse"><stop offset="0" stop-color="#0297fb"/><stop offset="0.2104" stop-color="#03a0fc"/><stop offset="0.5602" stop-color="#06bafd"/><stop offset="0.9944" stop-color="#0ae2ff"/></linearGradient></defs><path d="M12.6719,31.7148l-1.0781-.526h0l-1.57-.766a.0215.0215,0,0,1-.01-.0285.0213.0213,0,0,1,.0193-.0125A5.5983,5.5983,0,0,0,14.961,27.3a27.4441,27.4441,0,0,1,43.2159-7.9312C51.67,32.9039,47.9437,39.8611,42.8162,41.6671c-5.4186,1.908-13.146-1.667-28.0909-8.95Q13.7213,32.2263,12.6719,31.7148ZM30.1474,66.1857A5.1729,5.1729,0,0,1,33.53,70.6538a.0216.0216,0,0,0,.0415.007c4.1325-9.1562,5.8731-14.72,4.4265-18.9115-1.885-5.4611-9.4382-9.3482-24.3207-16.6134l-1.198-.584A27.92,27.92,0,0,0,30.1474,66.1857Zm2.3009,6.93A33.8575,33.8575,0,0,1,5.9811,39.962q0-1.0725.0653-2.127a4.5889,4.5889,0,0,1,4.24-4.3091.0212.0212,0,0,0,.0206-.0219.0215.0215,0,0,0-.0127-.0191L1.4684,29.18a40.0568,40.0568,0,0,0,27.5,49.2876q.4242.12.8508.23,1.4168-2.979,2.63-5.5811ZM7.686,29.2828A33.4329,33.4329,0,0,1,55.5245,10.1a7.3672,7.3672,0,0,1,3.8077,6.7691.021.021,0,0,0,.0184.0232.0206.0206,0,0,0,.0212-.0122q.4545-.9525.9277-1.941L60.82,13.85h0L63.536,8.17a39.3067,39.3067,0,0,0-55.45,7.5862A40.0922,40.0922,0,0,0,2.2644,26.6377Z" fill="url(#a)"/><path d="M79.9272,39.962a39.7738,39.7738,0,0,1-6.0931,21.2146c-3.1-1.516-5.8341-2.8851-8.2071-4.1581a.0206.0206,0,0,1,.01-.039,6.4685,6.4685,0,0,0,5.663-3.98,33.95,33.95,0,0,0-7.764-37.4359l2.741-5.6751A39.8629,39.8629,0,0,1,79.9272,39.962ZM57.8209,61.4026a8.7069,8.7069,0,0,1,5.6011-2.008.0222.0222,0,0,0,.008-.043c-6.8771-2.8981-11.4152-3.9721-14.9682-2.7341-3.506,1.223-6.3651,4.81-9.8841,11.1963A27.9332,27.9332,0,0,0,57.8209,61.4026Zm8.9271-.598A34.2531,34.2531,0,0,1,41.7917,73.8609a4.2685,4.2685,0,0,1-4.4691-3.6241.0213.0213,0,0,0-.04-.008c-1.368,2.6151-2.851,5.6251-4.51,9.0452A40.0154,40.0154,0,0,0,72.3281,63.4046q-2.9985-1.4265-5.58-2.6ZM63.635,25.1977a10.3542,10.3542,0,0,1-1.491-6.75c-7.1891,14.9064-10.7091,22.6516-8.8131,28.0887,1.126,3.23,4.256,5.9092,9.7331,9.0612a27.87,27.87,0,0,0,.571-30.4Z" fill="url(#b)"/></svg>