<?xml version="1.0" standalone="no"?>
<!DOCTYPE svg PUBLIC "-//W3C//DTD SVG 20010904//EN"
 "http://www.w3.org/TR/2001/REC-SVG-20010904/DTD/svg10.dtd">
<svg version="1.0" xmlns="http://www.w3.org/2000/svg"
 width="700.000000pt" height="700.000000pt" viewBox="0 0 700.000000 700.000000"
 preserveAspectRatio="xMidYMid meet">
<metadata>
Created by potrace 1.14, written by Peter Selinger 2001-2017
</metadata>
<g transform="translate(0.000000,700.000000) scale(0.100000,-0.100000)"
fill="#000000" stroke="none">
<path d="M3248 6995 c-2 -1 -37 -5 -78 -8 -72 -6 -202 -22 -265 -34 -16 -3
-39 -7 -51 -8 -166 -23 -569 -144 -749 -225 -362 -164 -615 -322 -880 -549
-362 -311 -653 -689 -866 -1124 -81 -166 -166 -380 -153 -384 5 -2 110 -53
232 -113 123 -61 228 -108 232 -105 5 3 14 22 21 43 49 153 159 390 252 547
316 528 760 924 1327 1183 191 87 469 173 668 206 17 4 47 9 65 12 142 24 265
32 497 29 140 -1 266 -5 280 -8 14 -3 43 -8 66 -11 89 -10 226 -36 327 -61
242 -62 517 -170 702 -278 189 -110 321 -331 320 -534 0 -53 8 -54 28 -5 8 20
54 118 102 217 182 376 226 471 228 489 3 31 -265 213 -495 334 -286 152 -707
296 -983 336 -22 4 -65 11 -95 16 -30 5 -82 12 -115 15 -33 4 -71 9 -85 11
-28 6 -526 14 -532 9z"/>
<path d="M5783 6088 c-86 -174 -213 -441 -213 -448 0 -4 24 -32 53 -62 192
-195 374 -444 501 -689 63 -120 156 -323 156 -340 0 -4 5 -20 12 -36 6 -15 12
-30 13 -33 1 -3 13 -42 28 -87 56 -174 98 -371 121 -574 14 -119 16 -581 3
-636 -3 -12 -8 -46 -11 -76 -4 -29 -13 -89 -21 -132 -9 -43 -17 -90 -20 -104
-5 -24 -31 -132 -39 -156 -1 -5 -8 -30 -15 -55 -26 -92 -95 -277 -129 -345
-48 -93 -154 -198 -245 -243 -37 -18 -77 -35 -88 -37 -10 -2 -23 -6 -27 -9 -5
-3 -30 -7 -57 -11 -27 -3 -50 -7 -52 -8 -4 -5 206 -113 543 -280 l171 -85 50
86 c84 144 133 241 221 442 40 91 119 326 148 440 15 63 18 74 29 123 14 60
55 299 60 352 4 33 9 71 11 85 9 46 11 524 4 605 -15 153 -21 210 -25 225 -2
8 -7 35 -10 60 -18 128 -76 368 -124 517 -170 522 -460 997 -843 1383 -86 86
-175 170 -181 170 -2 0 -13 -19 -24 -42z"/>
<path d="M3407 5944 c-1 -1 -47 -4 -102 -7 -292 -17 -583 -92 -862 -222 -315
-147 -604 -371 -825 -637 -108 -131 -181 -238 -269 -397 -83 -151 -141 -220
-223 -270 -59 -35 -168 -71 -221 -72 -23 0 9 -19 136 -82 296 -146 918 -447
924 -447 1 0 52 -23 111 -51 484 -228 887 -378 1134 -423 47 -9 99 -18 115
-21 41 -7 219 -8 278 0 228 29 444 179 654 455 171 226 350 542 645 1140 141
284 188 388 181 400 -5 8 -60 56 -122 106 -315 254 -723 436 -1106 494 -38 6
-81 13 -95 15 -40 7 -348 24 -353 19z"/>
<path d="M5410 5318 c-13 -29 -62 -132 -108 -228 -101 -209 -168 -350 -192
-405 -10 -22 -30 -67 -45 -100 -15 -33 -39 -85 -52 -115 -200 -437 -344 -857
-369 -1069 -3 -31 -8 -59 -10 -63 -7 -11 -6 -201 1 -263 20 -176 113 -344 280
-510 79 -79 274 -235 293 -235 6 0 12 -3 14 -7 2 -5 23 -21 48 -38 52 -34 51
-34 166 -102 l88 -52 38 60 c21 33 38 63 38 66 0 4 6 14 14 22 22 24 119 224
160 330 71 180 135 435 151 606 4 39 9 79 11 90 6 30 6 355 0 395 -3 19 -8 58
-10 85 -32 315 -164 697 -345 995 -96 158 -143 320 -143 493 0 53 -1 97 -3 97
-1 0 -12 -24 -25 -52z"/>
<path d="M125 4428 c-9 -27 -36 -136 -50 -203 -8 -38 -17 -81 -20 -95 -9 -45
-34 -224 -42 -305 -16 -165 -9 -617 12 -760 3 -16 7 -48 10 -70 52 -395 208
-849 423 -1230 42 -75 191 -305 226 -350 153 -194 214 -264 345 -395 86 -86
192 -185 236 -220 44 -36 85 -68 90 -73 162 -133 486 -327 720 -430 211 -94
519 -197 536 -180 12 12 231 475 227 478 -2 2 -55 17 -118 33 -362 97 -710
265 -1005 487 -44 33 -82 62 -85 65 -3 3 -34 29 -70 59 -98 82 -285 274 -375
386 -228 284 -406 614 -519 960 -33 102 -77 273 -91 355 -3 19 -7 44 -9 55 -2
11 -7 43 -10 70 -4 28 -9 61 -11 75 -23 129 -24 538 -2 623 39 148 158 261
307 292 l55 12 -95 45 c-52 26 -225 109 -383 187 -159 78 -291 141 -293 141
-3 0 -7 -6 -9 -12z"/>
<path d="M1085 3928 c-4 -24 -9 -50 -10 -58 -2 -13 -8 -61 -21 -165 -7 -53 -6
-368 0 -425 15 -129 30 -226 47 -300 6 -25 12 -53 14 -63 6 -26 9 -38 45 -156
204 -664 721 -1239 1358 -1506 222 -94 282 -134 346 -231 31 -47 66 -138 66
-171 0 -55 22 -18 103 170 129 301 192 467 261 694 86 281 97 578 29 763 -68
182 -190 327 -453 533 -140 110 -465 300 -930 543 -85 44 -837 414 -843 414
-3 0 -8 -19 -12 -42z"/>
<path d="M4457 2084 c-1 -1 -28 -5 -60 -8 -302 -35 -548 -247 -863 -746 -47
-74 -153 -264 -150 -267 2 -2 52 -4 112 -4 564 0 1094 187 1544 544 144 114
294 178 448 192 30 2 56 6 58 7 5 5 -282 117 -409 160 -189 63 -344 101 -472
114 -68 7 -203 12 -208 8z"/>
<path d="M5780 1594 c-106 -128 -286 -303 -423 -412 -75 -59 -244 -182 -251
-182 -1 0 -41 -23 -87 -51 -186 -112 -435 -223 -644 -288 -110 -33 -287 -77
-350 -86 -22 -4 -47 -8 -55 -10 -8 -2 -42 -7 -75 -11 -33 -3 -69 -8 -80 -10
-11 -3 -68 -7 -126 -9 -86 -4 -117 -1 -163 14 -68 22 -126 61 -173 116 -35 41
-42 53 -72 137 l-18 48 -195 -393 c-129 -258 -192 -394 -184 -398 6 -4 30 -9
53 -12 22 -4 52 -9 65 -11 158 -36 714 -42 928 -10 591 88 1043 256 1505 560
120 78 312 225 386 294 199 186 347 345 451 485 4 6 20 25 34 43 15 19 23 37
18 41 -11 10 -464 221 -474 221 -4 0 -36 -34 -70 -76z"/>
</g>
</svg>
