<svg xmlns="http://www.w3.org/2000/svg" width="14" height="12" viewBox="0 0 14 12">
  <path fill="currentColor" d="M10.074 6.329a.941.941 0 11-.882.939.912.912 0 01.882-.939m1.423-4.395h-8.56c-.407 0-.391-.566-.089-.639l.061-.008a1.8 1.8 0 01.193-.01h8.342a.563.563 0 00.166-.022.643.643 0 00.423-.781.605.605 0 00-.593-.473H3.101a3 3 0 00-2.192.97 3.406 3.406 0 00-.911 2.334v6.028A2.6 2.6 0 002.498 12h8.999a2.6 2.6 0 002.5-2.667v-.377h-3.986a1.692 1.692 0 010-3.378h3.986V4.6a2.6 2.6 0 00-2.5-2.666z"/>
</svg>
