<svg xmlns="http://www.w3.org/2000/svg" width="28" height="27" viewBox="0 0 28 27">
  <path fill="currentColor" d="M14,0A13.823,13.823,0,0,0,9.575,26.976c.7.128.925-.3.925-.666V23.733C6.606,24.571,5.795,22.1,5.795,22.1A3.677,3.677,0,0,0,4.24,20.074c-1.27-.859.1-.841.1-.841A2.936,2.936,0,0,1,6.482,20.66a3,3,0,0,0,4.074,1.15,2.924,2.924,0,0,1,.889-1.85c-3.109-.352-6.378-1.539-6.378-6.841A5.324,5.324,0,0,1,6.509,9.4a4.926,4.926,0,0,1,.136-3.663S7.821,5.369,10.5,7.159a13.417,13.417,0,0,1,7.01,0c2.673-1.79,3.847-1.419,3.847-1.419A4.922,4.922,0,0,1,21.491,9.4a5.309,5.309,0,0,1,1.441,3.715c0,5.316-3.275,6.487-6.392,6.83a3.288,3.288,0,0,1,.96,2.563v3.8c0,.368.224.8.934.664A13.824,13.824,0,0,0,14,0Z"/>
</svg>
