<svg xmlns="http://www.w3.org/2000/svg" width="205" height="205" viewBox="0 0 205 205">
  <path  fill="currentColor" d="M102.5 205a103.254 103.254 0 01-20.657-2.083 101.986 101.986 0 01-19.24-5.972 102.547 102.547 0 01-17.411-9.45 103.261 103.261 0 01-15.17-12.517 103.212 103.212 0 01-12.516-15.169A102.492 102.492 0 018.055 142.4a101.975 101.975 0 01-5.973-19.241A103.252 103.252 0 010 102.5a103.259 103.259 0 012.082-20.657 101.989 101.989 0 015.973-19.24 102.492 102.492 0 019.451-17.411 103.212 103.212 0 0112.516-15.169 103.237 103.237 0 0115.17-12.517 102.5 102.5 0 0117.411-9.45 101.952 101.952 0 0119.24-5.973A103.256 103.256 0 01102.5 0a103.256 103.256 0 0120.657 2.083 101.951 101.951 0 0119.24 5.973 102.5 102.5 0 0117.411 9.45 103.234 103.234 0 0115.17 12.517 103.233 103.233 0 0112.516 15.169 102.493 102.493 0 019.451 17.411 101.989 101.989 0 015.973 19.24A103.258 103.258 0 01205 102.5a103.251 103.251 0 01-2.082 20.657 101.974 101.974 0 01-5.973 19.241 102.493 102.493 0 01-9.451 17.411 103.233 103.233 0 01-12.516 15.169 103.257 103.257 0 01-15.17 12.517 102.55 102.55 0 01-17.411 9.45 101.985 101.985 0 01-19.24 5.972A103.254 103.254 0 01102.5 205zm-.5-72.654a9.913 9.913 0 00-3.8.754 9.919 9.919 0 00-5.413 5.391 9.91 9.91 0 00-.016 7.638 9.924 9.924 0 003.738 4.537 9.969 9.969 0 005.491 1.646 9.922 9.922 0 003.8-.754 9.918 9.918 0 005.413-5.39 9.916 9.916 0 00.016-7.638 9.925 9.925 0 00-3.74-4.537 9.978 9.978 0 00-5.489-1.647zm0-83.7a12.378 12.378 0 00-4.981 1.019 11.372 11.372 0 00-3.849 2.728 10.207 10.207 0 00-2.737 7.823l5.118 61.627a3.083 3.083 0 002 2.264 10.331 10.331 0 004.451.921 10.335 10.335 0 004.451-.921 3.083 3.083 0 002-2.264l5.118-61.627a10.21 10.21 0 00-2.739-7.823 11.364 11.364 0 00-3.849-2.727A12.377 12.377 0 00102 48.643z"/>
</svg>
