<svg xmlns="http://www.w3.org/2000/svg" width="18" height="18">
  <path fill="currentColor" d="M10.16.076a8.913 8.913 0 00-2.321 0l-.365 1.52a7.536 7.536 0 00-2.084.767L4.146 1.44a9.036 9.036 0 00-1.778 1.508l.683 1.4A7.7 7.7 0 001.942 6.29l-1.54.1a9.2 9.2 0 00-.4 2.311l1.413.628a7.752 7.752 0 00.385 2.208L.685 12.615a9.137 9.137 0 001.16 2.032l1.481-.437a7.611 7.611 0 001.7 1.441l-.169 1.551a8.943 8.943 0 002.181.8l.857-1.3a7.507 7.507 0 002.218 0l.857 1.3a8.944 8.944 0 002.181-.8l-.169-1.551a7.61 7.61 0 001.7-1.441l1.481.437a9.136 9.136 0 001.16-2.032l-1.115-1.078a7.75 7.75 0 00.385-2.208l1.413-.628a9.2 9.2 0 00-.4-2.311l-1.54-.1a7.7 7.7 0 00-1.109-1.942l.683-1.4a9.033 9.033 0 00-1.778-1.508l-1.244.923a7.534 7.534 0 00-2.093-.767zM9 3.433A5.677 5.677 0 113.386 9.11 5.648 5.648 0 019 3.433z"/>
</svg>
