<svg xmlns="http://www.w3.org/2000/svg" width="29" height="26" viewBox="0 0 23 20.54"><g transform="translate(-0.563 -0.563)"><path d="M60.75,169.242l3.013.8V169l.246-.246h1.722v2.091H63.886l-2.275-.984Z" transform="translate(-53.607 -149.8)" fill="#cdbdb2" fill-rule="evenodd"/><path d="M0,1.6,2.952.8V1.845l.246.246H4.92V0H3.075L.8.984Z" transform="translate(16.983 21.041) rotate(180)" fill="#cdbdb2" fill-rule="evenodd"/><path d="M88.559,149.933l-.246,2.029.307-.246h3.2l.369.246-.246-2.029-.492-.308-2.46.062Z" transform="translate(-78.156 -132.766)" fill="#393939" fill-rule="evenodd"/><path d="M75.375,27l1.476,3.444.677,10.024h2.4l.738-10.024L82.017,27Z" transform="translate(-66.633 -23.547)" fill="#f89c35" fill-rule="evenodd"/><path d="M2.285,81.158.563,86.139l4.3-.246H7.635V83.741l-.123-4.428L6.9,79.8Z" transform="translate(0 -70.141)" fill="#f89d35" fill-rule="evenodd"/><path d="M46.125,101.25l5.043.123-.553,2.583-2.4-.615Z" transform="translate(-40.581 -89.679)" fill="#d87c30" fill-rule="evenodd"/><path d="M46.125,101.813l2.091,1.968v1.968Z" transform="translate(-40.581 -90.181)" fill="#ea8d3a" fill-rule="evenodd"/><path d="M65.25,120.375l2.46.615.8,2.644-.554.307-2.706-1.6Z" transform="translate(-57.615 -106.714)" fill="#f89d35" fill-rule="evenodd"/><path d="M61.242,138.375l-.492,3.813,3.259-2.275Z" transform="translate(-53.607 -122.746)" fill="#eb8f35" fill-rule="evenodd"/><path d="M87.24,102.375l.308,5.227-.923-2.675Z" transform="translate(-76.653 -90.681)" fill="#ea8e3a" fill-rule="evenodd"/><path d="M39.375,138.437l2.829-.062-.492,3.813Z" transform="translate(-34.569 -122.746)" fill="#d87c30" fill-rule="evenodd"/><path d="M1.916,144.35l5.227-1.66-2.337-3.751-4.243.307Z" transform="translate(0 -123.247)" fill="#eb8f35" fill-rule="evenodd"/><path d="M50.8,58.5l-2.644,2.214-2.029,2.46,5.043.185Z" transform="translate(-40.581 -51.603)" fill="#e8821e" fill-rule="evenodd"/><path d="M60.75,154.713l3.259-2.275-.246,1.968v1.107l-2.214-.431Z" transform="translate(-53.607 -135.271)" fill="#dfcec3" fill-rule="evenodd"/><path d="M0,.8,3.2,3.075,2.952,1.107V0L.738.431Z" transform="translate(16.983 20.242) rotate(180)" fill="#dfcec3" fill-rule="evenodd"/><path d="M.677,1.414,0,0,2.4.615Z" transform="translate(9.911 14.215) rotate(180)" fill="#393939" fill-rule="evenodd"/><path d="M12.375.563,20.739,6.9,19.324,3.453Z" transform="translate(-10.521 0)" fill="#e88f35" fill-rule="evenodd"/><path d="M3.357.563,2.25,3.945l.615,3.69-.43.246.615.553-.492.43.676.615-.43.369.984,1.23L8.4,9.664A40.39,40.39,0,0,0,11.721,6.9Q11.659,6.835,3.357.563Z" transform="translate(-1.503)" fill="#8e5a30" fill-rule="evenodd"/><g transform="translate(23.563 21.103) rotate(180)"><path d="M1.722,4.981,0,0,4.3.246H7.072V2.4L6.949,6.826l-.615-.492Z" transform="translate(0 5.104)" fill="#f89d35" fill-rule="evenodd"/><path d="M0,2.706l5.043-.123L4.489,0l-2.4.615Z" transform="translate(4.981 6.826)" fill="#d87c30" fill-rule="evenodd"/><path d="M0,3.936,2.091,1.968V0Z" transform="translate(4.981 5.535)" fill="#ea8d3a" fill-rule="evenodd"/><path d="M0,3.567l2.46-.615.8-2.644L2.706,0,0,1.6Z" transform="translate(7.072 3.874)" fill="#f89d35" fill-rule="evenodd"/><path d="M.492,3.813,0,0,3.2,2.214Z" transform="translate(6.58 1.66)" fill="#eb8f35" fill-rule="evenodd"/><path d="M.615,5.227.923,0,0,2.675Z" transform="translate(9.409 4.182)" fill="#ea8e3a" fill-rule="evenodd"/><path d="M0,3.751l2.829.062L2.337,0Z" transform="translate(4.243 1.66)" fill="#d87c30" fill-rule="evenodd"/><path d="M1.353,0,6.58,1.66,4.243,5.412,0,5.1Z" transform="translate(0)" fill="#eb8f35" fill-rule="evenodd"/><path d="M4.674,4.858,2.029,2.644,0,.185,5.043,0Z" transform="translate(4.981 9.348)" fill="#e8821e" fill-rule="evenodd"/><path d="M.677,0,0,1.414,2.4.8Z" transform="translate(9.348 8.302) rotate(180)" fill="#393939" fill-rule="evenodd"/><path d="M0,6.334,8.364,0,6.949,3.444Z" transform="translate(1.291 14.206)" fill="#e88f35" fill-rule="evenodd"/><path d="M1.107,10.516,0,7.134l.615-3.69L.184,3.2.8,2.644l-.492-.43L.984,1.6.553,1.23,1.537,0,6.15,1.414A40.39,40.39,0,0,1,9.471,4.182Q9.409,4.243,1.107,10.516Z" transform="translate(0.184 10.024)" fill="#8e5a30" fill-rule="evenodd"/></g></g></svg>
