<svg xmlns="http://www.w3.org/2000/svg" width="28" height="23" viewBox="0 0 28 23">
  <path fill="currentColor" d="M8.789,23A16.256,16.256,0,0,1,0,20.436c2.155.139,5.958-.194,8.324-2.451a5.658,5.658,0,0,1-5.373-4.059,5.054,5.054,0,0,0,2.558-.07A5.679,5.679,0,0,1,.927,8.141a4.792,4.792,0,0,0,2.582.676A5.745,5.745,0,0,1,1.742,1.1,14.531,14.531,0,0,0,13.656,7.137,5.839,5.839,0,0,1,19.325,0a5.791,5.791,0,0,1,4.251,1.853A14.19,14.19,0,0,0,27.209.443a6.046,6.046,0,0,1-2.493,3.2h0A10.731,10.731,0,0,0,28,2.683,9.751,9.751,0,0,1,25.138,5.7C25.347,14.938,18.277,23,8.789,23Z"/>
</svg>
