<svg xmlns="http://www.w3.org/2000/svg" width="28" height="20" viewBox="0 0 28 20">
  <path fill="currentColor" d="M23.719,1.675A24.209,24.209,0,0,0,17.942,0a15.112,15.112,0,0,0-.74,1.418,22.967,22.967,0,0,0-6.4,0A14.7,14.7,0,0,0,10.051,0,24.122,24.122,0,0,0,4.27,1.679,21.041,21.041,0,0,0,.119,16.648,23.876,23.876,0,0,0,7.2,20a16.067,16.067,0,0,0,1.517-2.306,15.484,15.484,0,0,1-2.389-1.073c.2-.137.4-.28.586-.427a17.565,17.565,0,0,0,14.165,0c.191.147.388.291.586.427a15.445,15.445,0,0,1-2.394,1.075A16,16,0,0,0,20.792,20a23.828,23.828,0,0,0,7.089-3.352A21.043,21.043,0,0,0,23.719,1.675ZM9.349,13.634a2.592,2.592,0,0,1-2.517-2.642A2.578,2.578,0,0,1,9.349,8.348a2.561,2.561,0,0,1,2.517,2.644A2.575,2.575,0,0,1,9.349,13.634Zm9.3,0a2.592,2.592,0,0,1-2.517-2.642,2.52,2.52,0,1,1,5.035,0A2.576,2.576,0,0,1,18.651,13.634Z"/>
</svg>
