<svg xmlns="http://www.w3.org/2000/svg" width="12" height="12">
  <path fill="currentColor" d="M6 12A6 6 0 011.757 1.757a6 6 0 018.485 8.486A5.964 5.964 0 016 12zm-.828-6.715a.216.216 0 01.209.27l-.738 2.834a1.369 1.369 0 00.019.882.864.864 0 00.518.492 1.113 1.113 0 00.378.063 1.612 1.612 0 00.756-.206A2.351 2.351 0 007.3 8.534a.182.182 0 000-.154.189.189 0 00-.122-.1.174.174 0 00-.045-.006.193.193 0 00-.157.087.832.832 0 01-.642.4.357.357 0 01-.148-.029c-.157-.071-.148-.244-.112-.377l.883-3.395a.031.031 0 000-.01.009.009 0 010-.006v-.031a.161.161 0 000-.019v-.022a.052.052 0 010-.008.051.051 0 010-.011V4.84a.061.061 0 00-.036-.04v-.006l-.011-.01-.007-.006-.038-.028h-.007l-.014-.01-.018-.006h-.069l-1.983.229a.188.188 0 00-.17.192.183.183 0 00.183.178h.023l.337-.039zm1.354-3.11a.893.893 0 10.893.893.895.895 0 00-.893-.893z"/>
</svg>
