<svg xmlns="http://www.w3.org/2000/svg" viewBox="0 0 146.3 45.3">
  <defs>
    <linearGradient id="a" gradientUnits="userSpaceOnUse" x1="0" y1="37.4" x2="36.368" y2="37.4" gradientTransform="matrix(1 0 0 -1 0 59.7)">
      <stop offset="0" stop-color="#a50066" />
      <stop offset=".995" stop-color="#e6007a" />
    </linearGradient>
    <linearGradient id="b" gradientUnits="userSpaceOnUse" x1="18.572" y1="34.251" x2="45.295" y2="34.251" gradientTransform="matrix(1 0 0 -1 0 59.7)">
      <stop offset="0" stop-color="#0297fb" />
      <stop offset=".994" stop-color="#0ae2ff" />
    </linearGradient>
  </defs>
  <path fill="url(#a)" d="M7.3 18l-.6-.3-.9-.4c1.2 0 2.3-.7 2.8-1.7 4-7.8 13.5-10.9 21.2-6.9 1.3.6 2.4 1.5 3.5 2.4-3.7 7.7-5.9 11.6-8.8 12.6-3.1 1.1-7.5-.9-16.1-5.1-.4-.2-.7-.4-1.1-.6zm10 19.5c1.1.4 1.8 1.4 1.9 2.5 2.4-5.2 3.4-8.3 2.5-10.7-1.1-3.1-5.4-5.3-13.9-9.4l-.7-.3c-1.5 7.6 2.8 15.3 10.2 17.9zm1.3 3.9C9.7 39.5 3.4 31.7 3.4 22.6v-1.2c.1-1.3 1.1-2.4 2.4-2.4L.7 16.6c-3.4 12.1 3.7 24.6 15.7 27.9.2 0 .3.1.5.1.7-1.1 1.2-2.2 1.7-3.2zM4.4 16.6C7.7 6.5 18.6 1.1 28.7 4.4c1.1.4 2.1.8 3.1 1.3C33.2 6.5 34 8 34 9.6c.2-.4.4-.7.5-1.1l.3-.6 1.6-3.2C26.4-2.9 12.2-1 4.6 8.9c-1.4 1.9-2.5 4-3.3 6.2l3.1 1.5z"/>
  <path fill="url(#b)" d="M45.3 22.6c0 4.3-1.2 8.4-3.5 12-1.8-.9-3.3-1.6-4.7-2.4 1.4-.1 2.7-.9 3.2-2.3 3-7.3 1.3-15.7-4.4-21.2l1.6-3.2c5 4.4 7.8 10.6 7.8 17.1zM32.8 34.8c.9-.7 2-1.1 3.2-1.1-3.9-1.6-6.5-2.3-8.5-1.5-2 .7-3.6 2.7-5.6 6.3 3.9.1 7.8-1.2 10.9-3.7zm5-.3c-3.4 4.4-8.6 7.1-14.1 7.4-1.2.1-2.3-.8-2.5-2.1-.8 1.5-1.6 3.2-2.6 5.1 8.6 1.6 17.3-1.9 22.4-9-1.1-.5-2.2-1-3.2-1.4zm-1.7-20.2c-.7-1.1-1-2.5-.8-3.8-4.1 8.4-6.1 12.8-5 15.9.6 1.8 2.4 3.3 5.5 5.1 3.4-5.2 3.6-11.9.3-17.2z"/>
  <path fill="#fff" d="M79.5 11.5h-4.3l-.5 5.2h-1.8l-.1.6c-.1.9-.3 2.6-.3 3.2v.1h1.8c0 .5-.2 1.6-.3 2.8-.3 2.8-.7 6.5-.7 7.4 0 1.9.8 3.3 2.2 3.9.6.2 1.1.3 1.7.3 1.4 0 2.8-.6 3.8-1.6h.1l-1.2-3.1-.1.1c-.4.3-.9.3-1.3.1-.4-.3-.6-.9-.6-1.8.1-1.8.3-3.7.5-5.4.1-.9.2-1.7.3-2.6H82v-.1l.4-3.6v-.1H79l.5-5.4M127.4 20.3c-.7-.1-1.4-.1-2.1-.1-1.3 0-2.6.3-3.9.8-1.1.5-2.2 1.2-3 2.1-.9.9-1.5 1.9-2 3.1-.5 1.2-.7 2.4-.7 3.7 0 .8.1 1.6.3 2.3.2.6.5 1.1.9 1.6.4.4.8.7 1.3 1 .1 0 .1.1.2.1.4.1.8.2 1.2.2h.1c.9 0 1.7-.3 2.4-.7.6-.4 1.1-.9 1.6-1.5l-.2 1.9h4.2l1.7-13.9v-.1h-.1c-.5-.2-1.2-.4-1.9-.5zm-6.8 8.7c0-.8.1-1.5.3-2.3.2-.7.5-1.3.9-1.9.4-.5.9-.9 1.5-1.2.6-.3 1.2-.5 1.9-.5h.1L125 26c-.1.9-.3 1.9-.7 2.7-.2.5-.4 1-.7 1.4-.2.4-.5.7-.8.9-.4.3-.9.4-1.4.2-.2-.1-.3-.2-.4-.4-.1-.2-.2-.5-.3-.7-.1-.3-.1-.7-.1-1.1zM141.3 20.2l-3 7.7c-.2.4-.3.7-.4 1l-.1.3c0 .1-.1.2-.1.4 0-.2 0-.4-.1-.6-.1-.3-.1-.7-.2-1l-1.2-6.9-.2-.9h-5.2l3.8 15.6-3.8 7.6h5l10-22.3.4-.9h-4.9zM68.7 17.2l3.1-3.4c-2.3-2.4-6.3-2.9-9.3-1.7-5.4 2-7 10.9-.7 12.8 1.6.6 4.3 1 4 3.3-.6 3.8-4.8 2.6-6.9.8l-3.3 3.3-.1.1c6.2 6.2 17.5 1.1 15-7.9-.8-2.3-3.3-3.1-5.3-3.9-1.6-.6-3.1-1.4-2.4-3.3 1.1-2.5 4.5-1.6 5.9-.1zM103.3 20.3h-4L97.5 35v.1h4.6l.2-2.6c.3-2.8.8-6.6 2.6-7.7.7-.4 1.5-.5 2.3-.2.1 0 .3.1.4.1h.1l.1-.6.1-1 .3-2.6v-.2c-.2 0-.3-.1-.5-.1-1.9-.3-3.5 1.3-4.5 2.6v-.3l.1-2.2zM94.2 20.4c-.7-.1-1.4-.1-2.1-.1-1.3 0-2.7.2-3.9.8-1.1.5-2.2 1.2-3.1 2.1-.9.9-1.5 1.9-2 3.1-.5 1.2-.7 2.4-.7 3.7 0 .8.1 1.6.3 2.3.2.6.5 1.1.9 1.6.4.4.8.7 1.3 1 .5.2 1 .3 1.5.3s1-.1 1.4-.2c.4-.1.7-.3 1-.5.7-.4 1.3-1 1.8-1.6l-.2 2.1h4.1l1.8-14v-.1h-.1c-.6-.3-1.3-.5-2-.5zM87 30.2c-.1-.4-.1-.8-.1-1.2 0-.8.1-1.5.3-2.3.2-.7.5-1.3 1-1.9.4-.5.9-1 1.5-1.3.6-.3 1.2-.5 1.9-.5h.2l-.5 3c-.1.9-.3 1.9-.7 2.8-.2.5-.4 1-.7 1.4-.2.4-.5.7-.8.9-.4.3-.9.4-1.4.2-.2-.1-.3-.2-.4-.4-.2-.2-.3-.4-.3-.7zM108.9 35v.1h4.2l2.4-23.6v-.1h-4.2z"/>
</svg>
